<svg width="49" height="48" viewBox="0 0 49 48" fill="none" xmlns="http://www.w3.org/2000/svg">
<circle cx="24.0146" cy="24" r="24" fill="#18181B"/>
<g clipPath="url(#clip0_681_8906)">
<path fill-rule="evenodd" clip-rule="evenodd" d="M24.2936 13.6695C24.1146 13.5977 23.9147 13.5977 23.7356 13.6695L14.7836 17.25L18.3896 18.6915L27.6206 15L24.2936 13.6695ZM29.6396 15.8085L20.4086 19.5L24.0146 20.9415L33.2456 17.25L29.6396 15.8085ZM34.5146 18.3585L24.7646 22.2585V34.1415L34.5146 30.2415V18.3585ZM23.2646 34.143V22.257L13.5146 18.3585V30.243L23.2646 34.143ZM23.1791 12.276C23.7155 12.0615 24.3138 12.0615 24.8501 12.276L35.5436 16.554C35.6827 16.6097 35.8018 16.7058 35.8858 16.8298C35.9697 16.9539 36.0146 17.1002 36.0146 17.25V30.243C36.0145 30.5427 35.9245 30.8355 35.7563 31.0836C35.5881 31.3317 35.3495 31.5238 35.0711 31.635L24.2936 35.946C24.1146 36.0178 23.9147 36.0178 23.7356 35.946L12.9596 31.635C12.681 31.524 12.4421 31.3321 12.2736 31.084C12.1052 30.8358 12.015 30.5429 12.0146 30.243V17.25C12.0147 17.1002 12.0596 16.9539 12.1435 16.8298C12.2275 16.7058 12.3466 16.6097 12.4856 16.554L23.1791 12.276Z" fill="white"/>
</g>
<defs>
<clipPath id="clip0_681_8906">
<rect width="24" height="24" fill="white" transform="translate(12.0146 12)"/>
</clipPath>
</defs>
</svg>
