<svg width="97" height="24" viewBox="0 0 97 24" fill="none" xmlns="http://www.w3.org/2000/svg">
<g clip-path="url(#clip0_3440_75681)">
<path d="M19 13H13V19H11V13H5V11H11V5H13V11H19V13Z" fill="#EB8105"/>
</g>
<path d="M40.846 14.33H36.59L35.806 16.5H34.462L37.99 6.798H39.46L42.974 16.5H41.63L40.846 14.33ZM40.482 13.294L38.718 8.366L36.954 13.294H40.482ZM44.0356 12.636C44.0356 11.852 44.1943 11.166 44.5116 10.578C44.8289 9.98067 45.2629 9.51867 45.8136 9.192C46.3736 8.86533 46.9989 8.702 47.6896 8.702C48.2869 8.702 48.8423 8.842 49.3556 9.122C49.8689 9.39267 50.2609 9.752 50.5316 10.2V6.14H51.8196V16.5H50.5316V15.058C50.2796 15.5153 49.9063 15.8933 49.4116 16.192C48.9169 16.4813 48.3383 16.626 47.6756 16.626C46.9943 16.626 46.3736 16.458 45.8136 16.122C45.2629 15.786 44.8289 15.3147 44.5116 14.708C44.1943 14.1013 44.0356 13.4107 44.0356 12.636ZM50.5316 12.65C50.5316 12.0713 50.4149 11.5673 50.1816 11.138C49.9483 10.7087 49.6309 10.382 49.2296 10.158C48.8376 9.92467 48.4036 9.808 47.9276 9.808C47.4516 9.808 47.0176 9.92 46.6256 10.144C46.2336 10.368 45.9209 10.6947 45.6876 11.124C45.4543 11.5533 45.3376 12.0573 45.3376 12.636C45.3376 13.224 45.4543 13.7373 45.6876 14.176C45.9209 14.6053 46.2336 14.9367 46.6256 15.17C47.0176 15.394 47.4516 15.506 47.9276 15.506C48.4036 15.506 48.8376 15.394 49.2296 15.17C49.6309 14.9367 49.9483 14.6053 50.1816 14.176C50.4149 13.7373 50.5316 13.2287 50.5316 12.65ZM53.4965 12.636C53.4965 11.852 53.6552 11.166 53.9725 10.578C54.2899 9.98067 54.7239 9.51867 55.2745 9.192C55.8345 8.86533 56.4599 8.702 57.1505 8.702C57.7479 8.702 58.3032 8.842 58.8165 9.122C59.3299 9.39267 59.7219 9.752 59.9925 10.2V6.14H61.2805V16.5H59.9925V15.058C59.7405 15.5153 59.3672 15.8933 58.8725 16.192C58.3779 16.4813 57.7992 16.626 57.1365 16.626C56.4552 16.626 55.8345 16.458 55.2745 16.122C54.7239 15.786 54.2899 15.3147 53.9725 14.708C53.6552 14.1013 53.4965 13.4107 53.4965 12.636ZM59.9925 12.65C59.9925 12.0713 59.8759 11.5673 59.6425 11.138C59.4092 10.7087 59.0919 10.382 58.6905 10.158C58.2985 9.92467 57.8645 9.808 57.3885 9.808C56.9125 9.808 56.4785 9.92 56.0865 10.144C55.6945 10.368 55.3819 10.6947 55.1485 11.124C54.9152 11.5533 54.7985 12.0573 54.7985 12.636C54.7985 13.224 54.9152 13.7373 55.1485 14.176C55.3819 14.6053 55.6945 14.9367 56.0865 15.17C56.4785 15.394 56.9125 15.506 57.3885 15.506C57.8645 15.506 58.2985 15.394 58.6905 15.17C59.0919 14.9367 59.4092 14.6053 59.6425 14.176C59.8759 13.7373 59.9925 13.2287 59.9925 12.65ZM74.8379 16.5H73.5639L68.4399 8.73V16.5H67.1659V6.728H68.4399L73.5639 14.484V6.728H74.8379V16.5ZM84.0096 12.37C84.0096 12.6127 83.9956 12.8693 83.9676 13.14H77.8356C77.8823 13.896 78.139 14.4887 78.6056 14.918C79.0816 15.338 79.6556 15.548 80.3276 15.548C80.8783 15.548 81.3356 15.422 81.6996 15.17C82.073 14.9087 82.3343 14.5633 82.4836 14.134H83.8556C83.6503 14.8713 83.2396 15.4733 82.6236 15.94C82.0076 16.3973 81.2423 16.626 80.3276 16.626C79.5996 16.626 78.9463 16.4627 78.3676 16.136C77.7983 15.8093 77.3503 15.3473 77.0236 14.75C76.697 14.1433 76.5336 13.4433 76.5336 12.65C76.5336 11.8567 76.6923 11.1613 77.0096 10.564C77.327 9.96667 77.7703 9.50933 78.3396 9.192C78.9183 8.86533 79.581 8.702 80.3276 8.702C81.0556 8.702 81.6996 8.86067 82.2596 9.178C82.8196 9.49533 83.249 9.934 83.5476 10.494C83.8556 11.0447 84.0096 11.67 84.0096 12.37ZM82.6936 12.104C82.6936 11.6187 82.5863 11.2033 82.3716 10.858C82.157 10.5033 81.863 10.2373 81.4896 10.06C81.1256 9.87333 80.7196 9.78 80.2716 9.78C79.6276 9.78 79.077 9.98533 78.6196 10.396C78.1716 10.8067 77.915 11.376 77.8496 12.104H82.6936ZM95.9113 8.828L93.5173 16.5H92.2013L90.3533 10.41L88.5053 16.5H87.1893L84.7813 8.828H86.0833L87.8473 15.268L89.7513 8.828H91.0533L92.9153 15.282L94.6513 8.828H95.9113Z" fill="#EB8105"/>
<defs>
<clipPath id="clip0_3440_75681">
<rect width="24" height="24" fill="white"/>
</clipPath>
</defs>
</svg>
