<svg width="34" height="41" viewBox="0 0 34 41" fill="none" xmlns="http://www.w3.org/2000/svg">
<path d="M28.2287 38.836C26.0512 40.9468 23.6737 40.6135 21.3851 39.6137C18.9632 38.5916 16.7412 38.5471 14.186 39.6137C10.9864 40.9913 9.2977 40.5913 7.38683 38.836C-3.45626 27.6596 -1.85646 10.6395 10.4531 10.0174C13.4527 10.1729 15.5414 11.6616 17.2967 11.7949C19.9186 11.2617 22.4294 9.72852 25.229 9.9285C28.5842 10.1951 31.1172 11.5283 32.7837 13.928C25.8512 18.083 27.4954 27.2152 33.8502 29.7705C32.5837 33.1034 30.9394 36.4141 28.2064 38.8582L28.2287 38.836ZM17.0745 9.88406C16.7412 4.92912 20.7629 0.840746 25.3846 0.440796C26.0289 6.17341 20.1852 10.4395 17.0745 9.88406Z" fill="black"/>
</svg>
