<svg width="79" height="30" viewBox="0 0 79 30" fill="none" xmlns="http://www.w3.org/2000/svg">
<path d="M11.1361 8.576V10.4H13.5601V12.608H10.9921C10.7361 14.128 10.1041 15.232 9.09606 15.92C8.10406 16.608 6.60006 16.952 4.58406 16.952V18.224C4.58406 18.976 4.73606 19.568 5.04006 20C5.36006 20.432 5.89606 20.648 6.64806 20.648C7.36806 20.648 7.88806 20.448 8.20806 20.048C8.52806 19.632 8.68806 19.032 8.68806 18.248H11.8081C11.7761 19.864 11.3201 21.104 10.4401 21.968C9.56006 22.816 8.30406 23.24 6.67206 23.24C4.97606 23.24 3.68006 22.784 2.78406 21.872C1.88806 20.96 1.44006 19.632 1.44006 17.888V14.696C3.15206 14.696 4.41606 14.656 5.23206 14.576C6.04806 14.48 6.65606 14.288 7.05606 14C7.45606 13.712 7.72006 13.248 7.84806 12.608H0.672063V10.4H7.96806V8.576H0.672063V6.224H13.5601V8.576H11.1361Z" fill="#AB4E1A"/>
<path d="M19.43 7.51C19.43 6.83 19.5833 6.22 19.89 5.68C20.1967 5.13333 20.6133 4.70667 21.14 4.4C21.6733 4.09333 22.2633 3.94 22.91 3.94C23.67 3.94 24.3333 4.12333 24.9 4.49C25.4667 4.85667 25.88 5.37667 26.14 6.05H25.05C24.8567 5.63 24.5767 5.30667 24.21 5.08C23.85 4.85333 23.4167 4.74 22.91 4.74C22.4233 4.74 21.9867 4.85333 21.6 5.08C21.2133 5.30667 20.91 5.63 20.69 6.05C20.47 6.46333 20.36 6.95 20.36 7.51C20.36 8.06333 20.47 8.55 20.69 8.97C20.91 9.38333 21.2133 9.70333 21.6 9.93C21.9867 10.1567 22.4233 10.27 22.91 10.27C23.4167 10.27 23.85 10.16 24.21 9.94C24.5767 9.71333 24.8567 9.39 25.05 8.97H26.14C25.88 9.63667 25.4667 10.1533 24.9 10.52C24.3333 10.88 23.67 11.06 22.91 11.06C22.2633 11.06 21.6733 10.91 21.14 10.61C20.6133 10.3033 20.1967 9.88 19.89 9.34C19.5833 8.8 19.43 8.19 19.43 7.51ZM32.6146 9.45H29.5746L29.0146 11H28.0546L30.5746 4.07H31.6246L34.1346 11H33.1746L32.6146 9.45ZM32.3546 8.71L31.0946 5.19L29.8346 8.71H32.3546ZM38.4429 11.07C37.9829 11.07 37.5696 10.99 37.2029 10.83C36.8429 10.6633 36.5596 10.4367 36.3529 10.15C36.1462 9.85667 36.0396 9.52 36.0329 9.14H37.0029C37.0362 9.46667 37.1696 9.74333 37.4029 9.97C37.6429 10.19 37.9896 10.3 38.4429 10.3C38.8762 10.3 39.2162 10.1933 39.4629 9.98C39.7162 9.76 39.8429 9.48 39.8429 9.14C39.8429 8.87333 39.7696 8.65667 39.6229 8.49C39.4762 8.32333 39.2929 8.19667 39.0729 8.11C38.8529 8.02333 38.5562 7.93 38.1829 7.83C37.7229 7.71 37.3529 7.59 37.0729 7.47C36.7996 7.35 36.5629 7.16333 36.3629 6.91C36.1696 6.65 36.0729 6.30333 36.0729 5.87C36.0729 5.49 36.1696 5.15333 36.3629 4.86C36.5562 4.56667 36.8262 4.34 37.1729 4.18C37.5262 4.02 37.9296 3.94 38.3829 3.94C39.0362 3.94 39.5696 4.10333 39.9829 4.43C40.4029 4.75667 40.6396 5.19 40.6929 5.73H39.6929C39.6596 5.46333 39.5196 5.23 39.2729 5.03C39.0262 4.82333 38.6996 4.72 38.2929 4.72C37.9129 4.72 37.6029 4.82 37.3629 5.02C37.1229 5.21333 37.0029 5.48667 37.0029 5.84C37.0029 6.09333 37.0729 6.3 37.2129 6.46C37.3596 6.62 37.5362 6.74333 37.7429 6.83C37.9562 6.91 38.2529 7.00333 38.6329 7.11C39.0929 7.23667 39.4629 7.36333 39.7429 7.49C40.0229 7.61 40.2629 7.8 40.4629 8.06C40.6629 8.31333 40.7629 8.66 40.7629 9.1C40.7629 9.44 40.6729 9.76 40.4929 10.06C40.3129 10.36 40.0462 10.6033 39.6929 10.79C39.3396 10.9767 38.9229 11.07 38.4429 11.07ZM48.472 4.03V11H47.562V7.84H44.012V11H43.102V4.03H44.012V7.09H47.562V4.03H48.472ZM57.8519 11.07C57.2052 11.07 56.6152 10.92 56.0819 10.62C55.5485 10.3133 55.1252 9.89 54.8119 9.35C54.5052 8.80333 54.3519 8.19 54.3519 7.51C54.3519 6.83 54.5052 6.22 54.8119 5.68C55.1252 5.13333 55.5485 4.71 56.0819 4.41C56.6152 4.10333 57.2052 3.95 57.8519 3.95C58.5052 3.95 59.0985 4.10333 59.6319 4.41C60.1652 4.71 60.5852 5.13 60.8919 5.67C61.1985 6.21 61.3519 6.82333 61.3519 7.51C61.3519 8.19667 61.1985 8.81 60.8919 9.35C60.5852 9.89 60.1652 10.3133 59.6319 10.62C59.0985 10.92 58.5052 11.07 57.8519 11.07ZM57.8519 10.28C58.3385 10.28 58.7752 10.1667 59.1619 9.94C59.5552 9.71333 59.8619 9.39 60.0819 8.97C60.3085 8.55 60.4219 8.06333 60.4219 7.51C60.4219 6.95 60.3085 6.46333 60.0819 6.05C59.8619 5.63 59.5585 5.30667 59.1719 5.08C58.7852 4.85333 58.3452 4.74 57.8519 4.74C57.3585 4.74 56.9185 4.85333 56.5319 5.08C56.1452 5.30667 55.8385 5.63 55.6119 6.05C55.3919 6.46333 55.2819 6.95 55.2819 7.51C55.2819 8.06333 55.3919 8.55 55.6119 8.97C55.8385 9.39 56.1452 9.71333 56.5319 9.94C56.9252 10.1667 57.3652 10.28 57.8519 10.28ZM69.0332 11H68.1232L64.4632 5.45V11H63.5532V4.02H64.4632L68.1232 9.56V4.02H69.0332V11ZM21.94 19.03C22.7 19.03 23.3567 19.1733 23.91 19.46C24.47 19.74 24.8967 20.1433 25.19 20.67C25.49 21.1967 25.64 21.8167 25.64 22.53C25.64 23.2433 25.49 23.8633 25.19 24.39C24.8967 24.91 24.47 25.31 23.91 25.59C23.3567 25.8633 22.7 26 21.94 26H19.77V19.03H21.94ZM21.94 25.25C22.84 25.25 23.5267 25.0133 24 24.54C24.4733 24.06 24.71 23.39 24.71 22.53C24.71 21.6633 24.47 20.9867 23.99 20.5C23.5167 20.0133 22.8333 19.77 21.94 19.77H20.68V25.25H21.94ZM28.7503 19.77V22.1H31.2903V22.85H28.7503V25.25H31.5903V26H27.8403V19.02H31.5903V19.77H28.7503ZM34.8773 25.26H37.3173V26H33.9673V19.03H34.8773V25.26ZM40.1937 19.03V26H39.2837V19.03H40.1937ZM48.5046 19.03L45.8746 26H44.8246L42.1946 19.03H43.1646L45.3546 25.04L47.5446 19.03H48.5046ZM51.4124 19.77V22.1H53.9524V22.85H51.4124V25.25H54.2524V26H50.5024V19.02H54.2524V19.77H51.4124ZM60.2994 26L58.6394 23.15H57.5394V26H56.6294V19.03H58.8794C59.406 19.03 59.8494 19.12 60.2094 19.3C60.576 19.48 60.8494 19.7233 61.0294 20.03C61.2094 20.3367 61.2994 20.6867 61.2994 21.08C61.2994 21.56 61.1594 21.9833 60.8794 22.35C60.606 22.7167 60.1927 22.96 59.6394 23.08L61.3894 26H60.2994ZM57.5394 22.42H58.8794C59.3727 22.42 59.7427 22.3 59.9894 22.06C60.236 21.8133 60.3594 21.4867 60.3594 21.08C60.3594 20.6667 60.236 20.3467 59.9894 20.12C59.7494 19.8933 59.3794 19.78 58.8794 19.78H57.5394V22.42ZM68.5934 19.03L66.3234 23.37V26H65.4134V23.37L63.1334 19.03H64.1434L65.8634 22.56L67.5834 19.03H68.5934Z" fill="black"/>
</svg>
