<svg width="17" height="17" viewBox="0 0 17 17" fill="none" xmlns="http://www.w3.org/2000/svg">
<path d="M10.4141 8.10593L16.6442 1.87566C17.0496 1.4704 17.0496 0.815166 16.6442 0.409912C16.2389 0.00465894 15.5837 0.00465894 15.1784 0.409912L8.94815 6.64018L2.71807 0.409912C2.31263 0.00465894 1.65758 0.00465894 1.25232 0.409912C0.846881 0.815166 0.846881 1.4704 1.25232 1.87566L7.48241 8.10593L1.25232 14.3362C0.846881 14.7415 0.846881 15.3967 1.25232 15.8019C1.45429 16.0041 1.71984 16.1057 1.9852 16.1057C2.25056 16.1057 2.51592 16.0041 2.71807 15.8019L8.94815 9.57168L15.1784 15.8019C15.3806 16.0041 15.6459 16.1057 15.9113 16.1057C16.1767 16.1057 16.442 16.0041 16.6442 15.8019C17.0496 15.3967 17.0496 14.7415 16.6442 14.3362L10.4141 8.10593Z" fill="black"/>
</svg>
