<svg width="19" height="20" viewBox="0 0 19 20" fill="none" xmlns="http://www.w3.org/2000/svg">
<g id="fi_126473" clip-path="url(#clip0_8556_108125)">
<g id="Group">
<path id="Vector" d="M0.819069 6.58302C0.429691 7.07967 0.24295 7.61209 0.266788 8.16039C0.290628 8.76433 0.560808 9.23714 0.78331 9.52719C0.525049 10.1708 0.425718 11.184 1.28791 11.9707C1.91965 12.5468 2.99243 12.8051 4.47842 12.7336C5.52338 12.6859 6.39749 12.4912 6.43325 12.4833H6.43722C6.63588 12.4475 6.84646 12.4038 7.06102 12.3561C7.07691 12.6104 7.0332 13.2422 6.56436 14.6646C6.00811 16.3572 6.0399 17.6524 6.66767 18.5186C7.32722 19.4285 8.38013 19.5 8.69004 19.5C8.98804 19.5 9.26219 19.3768 9.45688 19.1504C9.89791 18.6378 9.84625 17.6922 9.79063 17.2551C10.3151 15.8486 11.7852 12.3998 13.0288 11.4423C13.0527 11.4264 13.0725 11.4065 13.0924 11.3867C13.4579 11.0013 13.7043 10.5841 13.8711 10.2185C14.1056 10.3457 14.3718 10.4172 14.6578 10.4172H17.0815C17.9954 10.4172 18.7344 9.67419 18.7344 8.76432V2.30782C18.7344 1.39398 17.9914 0.654957 17.0815 0.654957H14.6578C14.3042 0.654957 13.9744 0.766207 13.7043 0.956921L12.7706 0.845671C12.6275 0.825806 10.0846 0.503973 7.47423 0.555626C7.00142 0.519867 6.55642 0.5 6.1432 0.5C5.43199 0.5 4.81217 0.555626 4.29565 0.666876C3.07984 0.925137 2.24943 1.44166 1.82827 2.20054C1.50644 2.78064 1.50644 3.35675 1.55809 3.72229C0.767416 4.43747 0.628355 5.22815 0.656166 5.7844C0.67206 6.10623 0.743576 6.38038 0.819069 6.58302ZM17.0815 1.72773C17.4033 1.72773 17.6616 1.98996 17.6616 2.30782V8.7683C17.6616 9.09013 17.3994 9.34839 17.0815 9.34839H14.6578C14.336 9.34839 14.0777 9.08616 14.0777 8.7683V2.31179C14.0777 1.98996 14.34 1.7317 14.6578 1.7317H17.0815V1.72773ZM1.83622 7.04789C2.00309 6.87307 2.03488 6.60686 1.90774 6.40025C1.90774 6.39628 1.74483 6.11815 1.72497 5.73672C1.69715 5.21623 1.94747 4.75533 2.47193 4.36198C2.65868 4.21895 2.73417 3.97261 2.6547 3.7501C2.6547 3.74613 2.48385 3.22166 2.76198 2.72501C3.02819 2.24822 3.6202 1.90652 4.51815 1.71581C5.2373 1.56085 6.21472 1.53304 7.41463 1.6284C7.43053 1.6284 7.45039 1.6284 7.47026 1.6284C10.025 1.57277 12.6077 1.90652 12.6355 1.9105H12.6394L13.0407 1.95818C13.0169 2.06943 13.005 2.18862 13.005 2.30782V8.7683C13.005 8.93915 13.0328 9.10602 13.0805 9.26098C13.0089 9.52718 12.8103 10.1192 12.3414 10.6238C10.5575 12.0383 8.81321 16.8101 8.73772 17.0167C8.70594 17.1002 8.69799 17.1916 8.71388 17.2829C8.78143 17.7279 8.75759 18.2723 8.66223 18.4352C8.45165 18.4312 7.88348 18.3716 7.54178 17.8988C7.13651 17.3386 7.1524 16.3373 7.58946 15.0102C8.25696 12.9879 8.31259 11.923 7.78415 11.4542C7.52191 11.2198 7.17227 11.2079 6.91798 11.2992C6.67561 11.3549 6.44517 11.4026 6.22664 11.4383C6.21074 11.4423 6.19088 11.4463 6.17499 11.4502C4.9552 11.7164 2.76993 11.8793 2.01104 11.188C1.36737 10.6 1.8243 9.8212 1.87595 9.73777C2.02296 9.51527 1.97925 9.22522 1.78059 9.04642C1.77662 9.04245 1.35943 8.6491 1.33956 8.12066C1.32367 7.76704 1.49055 7.40548 1.83622 7.04789Z" fill="#5B5B5B"/>
</g>
</g>
<defs>
<clipPath id="clip0_8556_108125">
<rect width="19" height="19" fill="white" transform="matrix(-1 0 0 -1 19 19.5)"/>
</clipPath>
</defs>
</svg>
