<svg width="24" height="25" viewBox="0 0 24 25" fill="none" xmlns="http://www.w3.org/2000/svg">
<path d="M13.875 19.325C13.2569 19.4419 12.6291 19.5005 12 19.5C7.52203 19.5 3.73203 16.557 2.45703 12.5C2.8003 11.4081 3.32902 10.3835 4.02003 9.471M9.87803 10.379C10.4407 9.81634 11.2038 9.50025 11.9995 9.50025C12.7952 9.50025 13.5584 9.81634 14.121 10.379C14.6837 10.9417 14.9998 11.7048 14.9998 12.5005C14.9998 13.2962 14.6837 14.0593 14.121 14.622M9.87803 10.379L14.121 14.622M9.87803 10.379L14.12 14.62M14.121 14.622L17.412 17.912M9.88003 10.38L6.59003 7.09M6.59003 7.09L3.00003 3.5M6.59003 7.09C8.20239 6.04957 10.0811 5.4974 12 5.5C16.478 5.5 20.268 8.443 21.543 12.5C20.8391 14.7305 19.3774 16.6446 17.411 17.911M6.59003 7.09L17.411 17.911M17.411 17.911L21 21.5" stroke="#667085" stroke-width="2" stroke-linecap="round" stroke-linejoin="round"/>
</svg>
