<svg width="28" height="29" viewBox="0 0 28 29" fill="none" xmlns="http://www.w3.org/2000/svg">
<path d="M5.83333 24.9C5.19167 24.9 4.64217 24.6717 4.18483 24.2152C3.72828 23.7578 3.5 23.2083 3.5 22.5667V6.23333C3.5 5.59166 3.72828 5.04216 4.18483 4.58483C4.64217 4.12827 5.19167 3.89999 5.83333 3.89999H16.3333V6.23333H5.83333V22.5667H22.1667V12.0667H24.5V22.5667C24.5 23.2083 24.2717 23.7578 23.8152 24.2152C23.3578 24.6717 22.8083 24.9 22.1667 24.9H5.83333ZM19.8333 10.9V8.56666H17.5V6.23333H19.8333V3.89999H22.1667V6.23333H24.5V8.56666H22.1667V10.9H19.8333ZM7 20.2333H21L16.625 14.4L13.125 19.0667L10.5 15.5667L7 20.2333Z" fill="white"/>
</svg>
