<svg width="15" height="19" viewBox="0 0 15 19" fill="none" xmlns="http://www.w3.org/2000/svg">
<path d="M6.94048 9.19499C7.44476 9.19499 7.87661 9.01532 8.23603 8.65599C8.59483 8.29727 8.77424 7.86582 8.77424 7.36165C8.77424 6.85749 8.59483 6.42574 8.23603 6.0664C7.87661 5.70768 7.44476 5.52832 6.94048 5.52832C6.4362 5.52832 6.00466 5.70768 5.64585 6.0664C5.28644 6.42574 5.10673 6.85749 5.10673 7.36165C5.10673 7.86582 5.28644 8.29727 5.64585 8.65599C6.00466 9.01532 6.4362 9.19499 6.94048 9.19499ZM6.94048 15.9325C8.8048 14.2214 10.1878 12.6667 11.0893 11.2685C11.9909 9.87088 12.4417 8.62971 12.4417 7.54499C12.4417 5.87971 11.9106 4.51601 10.8482 3.4539C9.78647 2.3924 8.48389 1.86165 6.94048 1.86165C5.39707 1.86165 4.09419 2.3924 3.03184 3.4539C1.97009 4.51601 1.43922 5.87971 1.43922 7.54499C1.43922 8.62971 1.89002 9.87088 2.79162 11.2685C3.69321 12.6667 5.07617 14.2214 6.94048 15.9325ZM6.94048 18.0179C6.81823 18.0179 6.69598 17.995 6.57373 17.9492C6.45148 17.9033 6.34451 17.8422 6.25283 17.7658C4.02176 15.795 2.3561 13.9656 1.25585 12.2777C0.155595 10.5892 -0.394531 9.01165 -0.394531 7.54499C-0.394531 5.25332 0.342943 3.42763 1.81789 2.0679C3.29223 0.708181 4.99976 0.0283203 6.94048 0.0283203C8.8812 0.0283203 10.5887 0.708181 12.0631 2.0679C13.538 3.42763 14.2755 5.25332 14.2755 7.54499C14.2755 9.01165 13.7254 10.5892 12.6251 12.2777C11.5249 13.9656 9.85921 15.795 7.62814 17.7658C7.53645 17.8422 7.42948 17.9033 7.30723 17.9492C7.18498 17.995 7.06273 18.0179 6.94048 18.0179Z" fill="#7D7D7D" fill-opacity="0.5"/>
</svg>
