<svg width="19" height="20" viewBox="0 0 19 20" fill="none" xmlns="http://www.w3.org/2000/svg">
<g id="fi_126473" clip-path="url(#clip0_8556_108120)">
<g id="Group">
<path id="Vector" d="M18.1809 13.417C18.5703 12.9203 18.757 12.3879 18.7332 11.8396C18.7094 11.2357 18.4392 10.7629 18.2167 10.4728C18.475 9.82915 18.5743 8.81598 17.7121 8.02928C17.0803 7.45316 16.0076 7.1949 14.5216 7.26642C13.4766 7.31409 12.6025 7.50878 12.5668 7.51673H12.5628C12.3641 7.55249 12.1535 7.59619 11.939 7.64387C11.9231 7.38959 11.9668 6.75784 12.4356 5.33542C12.9919 3.64283 12.9601 2.34755 12.3323 1.48139C11.6728 0.571518 10.6199 0.5 10.31 0.5C10.012 0.5 9.73781 0.62317 9.54312 0.849645C9.10209 1.36219 9.15375 2.30782 9.20937 2.74488C8.6849 4.1514 7.21481 7.60017 5.97119 8.55772C5.94735 8.57361 5.92748 8.59348 5.90762 8.61334C5.54208 8.99874 5.29574 9.41593 5.12886 9.78147C4.89444 9.65433 4.62823 9.58281 4.34216 9.58281H1.91849C1.00465 9.58281 0.265625 10.3258 0.265625 11.2357V17.6922C0.265625 18.606 1.00862 19.345 1.91849 19.345H4.34216C4.69578 19.345 5.02556 19.2338 5.29574 19.0431L6.22945 19.1543C6.37248 19.1742 8.91535 19.496 11.5258 19.4444C11.9986 19.4801 12.4436 19.5 12.8568 19.5C13.568 19.5 14.1878 19.4444 14.7044 19.3331C15.9202 19.0749 16.7506 18.5583 17.1717 17.7995C17.4936 17.2194 17.4936 16.6432 17.4419 16.2777C18.2326 15.5625 18.3716 14.7719 18.3438 14.2156C18.3279 13.8938 18.2564 13.6196 18.1809 13.417ZM1.91849 18.2723C1.59666 18.2723 1.3384 18.01 1.3384 17.6922V11.2317C1.3384 10.9099 1.60063 10.6516 1.91849 10.6516H4.34216C4.66399 10.6516 4.92225 10.9138 4.92225 11.2317V17.6882C4.92225 18.01 4.66002 18.2683 4.34216 18.2683H1.91849V18.2723ZM17.1638 12.9521C16.9969 13.1269 16.9651 13.3931 17.0923 13.5997C17.0923 13.6037 17.2552 13.8818 17.275 14.2633C17.3028 14.7838 17.0525 15.2447 16.5281 15.638C16.3413 15.7811 16.2658 16.0274 16.3453 16.2499C16.3453 16.2539 16.5161 16.7783 16.238 17.275C15.9718 17.7518 15.3798 18.0935 14.4819 18.2842C13.7627 18.4391 12.7853 18.467 11.5854 18.3716C11.5695 18.3716 11.5496 18.3716 11.5297 18.3716C8.97495 18.4272 6.39235 18.0935 6.36454 18.0895H6.36056L5.95927 18.0418C5.98311 17.9306 5.99503 17.8114 5.99503 17.6922V11.2317C5.99503 11.0609 5.96721 10.894 5.91954 10.739C5.99105 10.4728 6.18971 9.8808 6.65856 9.3762C8.44254 7.96173 10.1868 3.18988 10.2623 2.98327C10.2941 2.89983 10.302 2.80845 10.2861 2.71706C10.2186 2.27206 10.2424 1.72773 10.3378 1.56483C10.5484 1.5688 11.1165 1.6284 11.4582 2.10121C11.8635 2.66144 11.8476 3.66269 11.4105 4.98975C10.743 7.01213 10.6874 8.07696 11.2159 8.5458C11.4781 8.78022 11.8277 8.79214 12.082 8.70075C12.3244 8.64513 12.5548 8.59745 12.7734 8.56169C12.7893 8.55772 12.8091 8.55374 12.825 8.54977C14.0448 8.28356 16.2301 8.12066 16.989 8.812C17.6326 9.40004 17.1757 10.1788 17.1241 10.2622C16.977 10.4847 17.0207 10.7748 17.2194 10.9536C17.2234 10.9575 17.6406 11.3509 17.6604 11.8793C17.6763 12.233 17.5095 12.5945 17.1638 12.9521Z" fill="#5B5B5B"/>
</g>
</g>
<defs>
<clipPath id="clip0_8556_108120">
<rect width="19" height="19" fill="white" transform="translate(0 0.5)"/>
</clipPath>
</defs>
</svg>
