<svg width="12" height="13" viewBox="0 0 12 13" fill="none" xmlns="http://www.w3.org/2000/svg">
<path d="M10.705 6.48653L6.205 1.98653C6.025 1.80653 5.775 1.69653 5.5 1.69653H2C1.45 1.69653 1 2.14653 1 2.69653V6.19653C1 6.47153 1.11 6.72153 1.295 6.90653L5.795 11.4065C5.975 11.5865 6.225 11.6965 6.5 11.6965C6.775 11.6965 7.025 11.5865 7.205 11.4015L10.705 7.90153C10.89 7.72153 11 7.47153 11 7.19653C11 6.92153 10.885 6.66653 10.705 6.48653ZM6.5 10.7015L2 6.19653V2.69653H5.5V2.69153L10 7.19153L6.5 10.7015Z" fill="#1B264F"/>
<path d="M3.25 4.69653C3.66421 4.69653 4 4.36075 4 3.94653C4 3.53232 3.66421 3.19653 3.25 3.19653C2.83579 3.19653 2.5 3.53232 2.5 3.94653C2.5 4.36075 2.83579 4.69653 3.25 4.69653Z" fill="#1B264F"/>
</svg>
