<svg width="68" height="24" viewBox="0 0 68 24" fill="none" xmlns="http://www.w3.org/2000/svg">
<rect width="68" height="24" rx="2" fill="#B91C1C"/>
<path d="M14.2307 16.375C14.0728 16.3745 13.921 16.3142 13.8057 16.2063C13.235 15.6644 12.7805 15.012 12.4699 14.2889C12.1593 13.5658 11.9991 12.787 11.9991 12C11.9991 11.213 12.1593 10.4342 12.4699 9.71111C12.7805 8.98798 13.235 8.33562 13.8057 7.79376C13.9287 7.69403 14.085 7.64469 14.2429 7.65573C14.4009 7.66677 14.5487 7.73735 14.6567 7.85321C14.7646 7.96907 14.8245 8.12158 14.8244 8.27992C14.8242 8.43827 14.7639 8.59064 14.6557 8.70625C14.2114 9.13211 13.8579 9.64344 13.6164 10.2095C13.3749 10.7755 13.2504 11.3846 13.2504 12C13.2504 12.6154 13.3749 13.2245 13.6164 13.7905C13.8579 14.3566 14.2114 14.8679 14.6557 15.2938C14.7471 15.3793 14.8107 15.4903 14.8382 15.6125C14.8658 15.7346 14.856 15.8621 14.8102 15.9786C14.7644 16.0952 14.6847 16.1952 14.5814 16.2659C14.4781 16.3366 14.3559 16.3746 14.2307 16.375ZM11.7307 18.05C11.8471 17.9329 11.9124 17.7745 11.9124 17.6094C11.9124 17.4443 11.8471 17.2859 11.7307 17.1688C11.0315 16.5017 10.4749 15.6996 10.0946 14.8112C9.71428 13.9228 9.5182 12.9664 9.5182 12C9.5182 11.0336 9.71428 10.0772 10.0946 9.18882C10.4749 8.30038 11.0315 7.49835 11.7307 6.83126C11.8517 6.71439 11.9213 6.55425 11.9243 6.38605C11.9272 6.21786 11.8632 6.05539 11.7463 5.93438C11.6295 5.81338 11.4693 5.74375 11.3011 5.74082C11.1329 5.73789 10.9705 5.80189 10.8495 5.91876C10.0262 6.70326 9.37073 7.64676 8.92289 8.69209C8.47506 9.73741 8.24414 10.8628 8.24414 12C8.24414 13.1372 8.47506 14.2626 8.92289 15.3079C9.37073 16.3532 10.0262 17.2968 10.8495 18.0813C10.9096 18.1378 10.9803 18.1819 11.0576 18.211C11.1349 18.2401 11.2172 18.2536 11.2997 18.2507C11.3822 18.2478 11.4634 18.2285 11.5384 18.1941C11.6135 18.1596 11.6809 18.1107 11.737 18.05H11.7307ZM20.187 16.2063C20.7577 15.6644 21.2122 15.012 21.5228 14.2889C21.8334 13.5658 21.9935 12.787 21.9935 12C21.9935 11.213 21.8334 10.4342 21.5228 9.71111C21.2122 8.98798 20.7577 8.33562 20.187 7.79376C20.127 7.73753 20.0566 7.69366 19.9798 7.66465C19.9029 7.63564 19.8211 7.62205 19.7389 7.62466C19.6568 7.62727 19.576 7.64603 19.5011 7.67987C19.4263 7.71371 19.3588 7.76196 19.3026 7.82188C19.2464 7.8818 19.2025 7.9522 19.1735 8.02907C19.1445 8.10594 19.1309 8.18777 19.1335 8.26989C19.1361 8.35201 19.1549 8.43282 19.1887 8.50769C19.2225 8.58256 19.2708 8.65003 19.3307 8.70625C19.7774 9.13072 20.133 9.6416 20.3761 10.2078C20.6191 10.7741 20.7445 11.3838 20.7445 12C20.7445 12.6162 20.6191 13.2259 20.3761 13.7922C20.133 14.3584 19.7774 14.8693 19.3307 15.2938C19.2101 15.4067 19.139 15.5628 19.1332 15.7279C19.1273 15.8931 19.1871 16.0538 19.2995 16.175C19.3584 16.2386 19.43 16.2892 19.5097 16.3237C19.5893 16.3581 19.6752 16.3756 19.762 16.375C19.9199 16.3745 20.0717 16.3142 20.187 16.2063ZM23.137 18.0813C23.9627 17.2982 24.6202 16.3551 25.0696 15.3096C25.519 14.2641 25.7507 13.138 25.7507 12C25.7507 10.862 25.519 9.73593 25.0696 8.69042C24.6202 7.64491 23.9627 6.70186 23.137 5.91876C23.014 5.81903 22.8577 5.76969 22.6997 5.78073C22.5418 5.79177 22.3939 5.86235 22.286 5.97821C22.1781 6.09407 22.1181 6.24658 22.1183 6.40492C22.1185 6.56327 22.1788 6.71564 22.287 6.83126C22.9862 7.49835 23.5428 8.30038 23.9231 9.18882C24.3034 10.0772 24.4995 11.0336 24.4995 12C24.4995 12.9664 24.3034 13.9228 23.9231 14.8112C23.5428 15.6996 22.9862 16.5017 22.287 17.1688C22.1663 17.2817 22.0953 17.4378 22.0894 17.6029C22.0836 17.7681 22.1434 17.9288 22.2557 18.05C22.314 18.1128 22.3846 18.163 22.463 18.1974C22.5415 18.2318 22.6263 18.2497 22.712 18.25C22.8699 18.2495 23.0217 18.1892 23.137 18.0813ZM18.2495 12C18.2495 11.7528 18.1761 11.5111 18.0388 11.3055C17.9014 11.1 17.7062 10.9398 17.4778 10.8452C17.2494 10.7505 16.9981 10.7258 16.7556 10.774C16.5131 10.8223 16.2904 10.9413 16.1156 11.1161C15.9408 11.2909 15.8217 11.5137 15.7735 11.7561C15.7252 11.9986 15.75 12.25 15.8446 12.4784C15.9392 12.7068 16.0994 12.902 16.305 13.0393C16.5106 13.1767 16.7522 13.25 16.9995 13.25C17.331 13.25 17.6489 13.1183 17.8833 12.8839C18.1178 12.6495 18.2495 12.3315 18.2495 12Z" fill="white"/>
<path d="M32.232 6.848H33.688V16.816H37.592V18H32.232V6.848ZM39.1383 18V6.848H40.5943V18H39.1383ZM47.2518 16.464L50.7558 6.848H52.2918L48.0838 18H46.4038L42.1958 6.848H43.7478L47.2518 16.464ZM59.8883 6.832V8.032H55.3443V11.76H59.4083V12.96H55.3443V16.8H59.8883V18H53.8883V6.832H59.8883Z" fill="white"/>
</svg>
