<svg width="24" height="25" viewBox="0 0 24 25" fill="none" xmlns="http://www.w3.org/2000/svg">
<g id="location_pin" clipPath="url(#clip0_4277_54746)">
<path id="Vector" d="M12 2.04982C8.13 2.04982 5 5.17982 5 9.04982C5 10.7898 5.5 12.4198 6.41 13.8898C7.36 15.4298 8.61 16.7498 9.57 18.2898C10.04 19.0398 10.38 19.7398 10.74 20.5498C11 21.0998 11.21 22.0498 12 22.0498C12.79 22.0498 13 21.0998 13.25 20.5498C13.62 19.7398 13.95 19.0398 14.42 18.2898C15.38 16.7598 16.63 15.4398 17.58 13.8898C18.5 12.4198 19 10.7898 19 9.04982C19 5.17982 15.87 2.04982 12 2.04982ZM12 11.7998C10.62 11.7998 9.5 10.6798 9.5 9.29982C9.5 7.91982 10.62 6.79982 12 6.79982C13.38 6.79982 14.5 7.91982 14.5 9.29982C14.5 10.6798 13.38 11.7998 12 11.7998Z" fill="black"/>
</g>
<defs>
<clipPath id="clip0_4277_54746">
<rect width="24" height="24" fill="white" transform="translate(0 0.0498199)"/>
</clipPath>
</defs>
</svg>
