<svg width="207" height="20" viewBox="0 0 207 20" fill="none" xmlns="http://www.w3.org/2000/svg">
<path d="M6.18785 19.6685V3.9779H0V0.331491H16.8508V3.9779H10.663V19.6685H6.18785Z" fill="#18181B"/>
<path d="M19.2587 19.6685V0.331491H27.6288C29.36 0.331491 30.8517 0.616942 32.104 1.18784C33.3563 1.74033 34.3231 2.54144 35.0045 3.59116C35.6859 4.64088 36.0266 5.89319 36.0266 7.34807C36.0266 8.78453 35.6859 10.0276 35.0045 11.0773C34.3231 12.1087 33.3563 12.9006 32.104 13.453C30.8517 14.0055 29.36 14.2818 27.6288 14.2818H21.7449L23.7338 12.3204V19.6685H19.2587ZM31.5515 19.6685L26.7172 12.6519H31.4962L36.3858 19.6685H31.5515ZM23.7338 12.8177L21.7449 10.7182H27.3802C28.7614 10.7182 29.7927 10.4236 30.4741 9.83425C31.1555 9.22652 31.4962 8.39779 31.4962 7.34807C31.4962 6.27993 31.1555 5.4512 30.4741 4.86188C29.7927 4.27256 28.7614 3.9779 27.3802 3.9779H21.7449L23.7338 1.85083V12.8177Z" fill="#18181B"/>
<path d="M39.5723 19.6685V0.331491H44.0474V19.6685H39.5723Z" fill="#18181B"/>
<path d="M46.095 19.6685L54.7138 0.331491H59.1337L67.7801 19.6685H63.084L56.0122 2.59668H57.7801L50.6807 19.6685H46.095ZM50.4044 15.5249L51.5923 12.1271H61.537L62.7525 15.5249H50.4044Z" fill="#18181B"/>
<path d="M69.7863 19.6685V0.331491H74.2615V16.0221H83.9576V19.6685H69.7863Z" fill="#18181B"/>
<path d="M92.7307 20C91.1838 20 89.7013 19.7974 88.2832 19.3923C86.8652 18.9687 85.7233 18.4254 84.8578 17.7624L86.3771 14.3923C87.2058 14.9816 88.1819 15.4696 89.3053 15.8564C90.4471 16.2247 91.5981 16.4088 92.7583 16.4088C93.6423 16.4088 94.3513 16.326 94.8854 16.1602C95.4379 15.9761 95.8431 15.7274 96.1009 15.4144C96.3587 15.1013 96.4876 14.7422 96.4876 14.337C96.4876 13.8214 96.285 13.4162 95.8799 13.1215C95.4747 12.8085 94.9407 12.5599 94.2777 12.3757C93.6147 12.1731 92.878 11.989 92.0677 11.8232C91.2758 11.639 90.4747 11.418 89.6644 11.1602C88.8725 10.9024 88.1451 10.5709 87.4821 10.1657C86.8191 9.76059 86.2758 9.22652 85.8523 8.56354C85.4471 7.90055 85.2445 7.05341 85.2445 6.0221C85.2445 4.91713 85.5392 3.91344 86.1285 3.01105C86.7362 2.09024 87.6386 1.3628 88.8357 0.828728C90.0512 0.276243 91.5705 0 93.3937 0C94.6092 0 95.8062 0.14733 96.9849 0.441989C98.1635 0.718232 99.204 1.1418 100.106 1.71271L98.7252 5.1105C97.8228 4.59484 96.9204 4.21731 96.018 3.9779C95.1156 3.72007 94.2316 3.59116 93.3661 3.59116C92.5005 3.59116 91.7915 3.69245 91.239 3.89503C90.6865 4.09761 90.2906 4.36464 90.0512 4.69613C89.8117 5.00921 89.692 5.37753 89.692 5.80111C89.692 6.29834 89.8946 6.7035 90.2998 7.01657C90.7049 7.31123 91.239 7.55064 91.902 7.73481C92.565 7.91897 93.2924 8.10313 94.0843 8.28729C94.8946 8.47145 95.6957 8.68324 96.4876 8.92265C97.2979 9.16206 98.0346 9.48435 98.6976 9.8895C99.3605 10.2947 99.8946 10.8287 100.3 11.4917C100.723 12.1547 100.935 12.9926 100.935 14.0055C100.935 15.0921 100.631 16.0866 100.024 16.989C99.4158 17.8913 98.5042 18.6188 97.2887 19.1713C96.0917 19.7238 94.5723 20 92.7307 20Z" fill="#18181B"/>
<path d="M117.253 0.331491H121.728V19.6685H117.253V0.331491ZM108.468 19.6685H103.993V0.331491H108.468V19.6685ZM117.584 11.7403H108.137V7.9558H117.584V11.7403Z" fill="#18181B"/>
<path d="M135.695 20C134.167 20 132.749 19.7514 131.441 19.2541C130.152 18.7569 129.028 18.0571 128.071 17.1547C127.132 16.2523 126.395 15.1934 125.861 13.9779C125.345 12.7624 125.087 11.4365 125.087 10C125.087 8.56353 125.345 7.23757 125.861 6.0221C126.395 4.80663 127.141 3.7477 128.098 2.8453C129.056 1.94291 130.179 1.24309 131.469 0.745855C132.758 0.248618 134.157 0 135.668 0C137.196 0 138.596 0.248618 139.866 0.745855C141.156 1.24309 142.27 1.94291 143.209 2.8453C144.167 3.7477 144.912 4.80663 145.447 6.0221C145.981 7.21915 146.248 8.54512 146.248 10C146.248 11.4365 145.981 12.7716 145.447 14.0055C144.912 15.221 144.167 16.2799 143.209 17.1823C142.27 18.0663 141.156 18.7569 139.866 19.2541C138.596 19.7514 137.205 20 135.695 20ZM135.668 16.1878C136.533 16.1878 137.325 16.0405 138.043 15.7459C138.78 15.4512 139.424 15.0276 139.977 14.4751C140.529 13.9227 140.953 13.2689 141.248 12.5138C141.561 11.7587 141.717 10.9208 141.717 10C141.717 9.07919 141.561 8.24125 141.248 7.48619C140.953 6.73112 140.529 6.07735 139.977 5.52486C139.443 4.97238 138.807 4.5488 138.071 4.25414C137.334 3.95949 136.533 3.81215 135.668 3.81215C134.802 3.81215 134.001 3.95949 133.264 4.25414C132.546 4.5488 131.911 4.97238 131.358 5.52486C130.806 6.07735 130.373 6.73112 130.06 7.48619C129.765 8.24125 129.618 9.07919 129.618 10C129.618 10.9024 129.765 11.7403 130.06 12.5138C130.373 13.2689 130.796 13.9227 131.331 14.4751C131.883 15.0276 132.528 15.4512 133.264 15.7459C134.001 16.0405 134.802 16.1878 135.668 16.1878Z" fill="#18181B"/>
<path d="M149.611 19.6685V0.331491H157.981C159.712 0.331491 161.204 0.616942 162.456 1.18784C163.709 1.74033 164.675 2.54144 165.357 3.59116C166.038 4.64088 166.379 5.89319 166.379 7.34807C166.379 8.78453 166.038 10.0276 165.357 11.0773C164.675 12.1271 163.709 12.9374 162.456 13.5083C161.204 14.0608 159.712 14.337 157.981 14.337H152.097L154.086 12.3204V19.6685H149.611ZM154.086 12.8177L152.097 10.6906H157.732C159.114 10.6906 160.145 10.3959 160.826 9.80663C161.508 9.21731 161.848 8.39779 161.848 7.34807C161.848 6.27993 161.508 5.4512 160.826 4.86188C160.145 4.27256 159.114 3.9779 157.732 3.9779H152.097L154.086 1.85083V12.8177Z" fill="#18181B"/>
<path d="M169.574 19.6685V0.331491H177.944C179.675 0.331491 181.167 0.616942 182.419 1.18784C183.671 1.74033 184.638 2.54144 185.32 3.59116C186.001 4.64088 186.342 5.89319 186.342 7.34807C186.342 8.78453 186.001 10.0276 185.32 11.0773C184.638 12.1271 183.671 12.9374 182.419 13.5083C181.167 14.0608 179.675 14.337 177.944 14.337H172.06L174.049 12.3204V19.6685H169.574ZM174.049 12.8177L172.06 10.6906H177.695C179.077 10.6906 180.108 10.3959 180.789 9.80663C181.471 9.21731 181.811 8.39779 181.811 7.34807C181.811 6.27993 181.471 5.4512 180.789 4.86188C180.108 4.27256 179.077 3.9779 177.695 3.9779H172.06L174.049 1.85083V12.8177Z" fill="#18181B"/>
<path d="M194.343 19.6685V11.768L195.365 14.4751L186.857 0.331491H191.609L198.128 11.1878H195.393L201.94 0.331491H206.332L197.824 14.4751L198.818 11.768V19.6685H194.343Z" fill="#18181B"/>
</svg>
