<svg width="19" height="18" viewBox="0 0 19 18" fill="none" xmlns="http://www.w3.org/2000/svg">
<g clip-path="url(#clip0_5060_70321)">
<path d="M9.79999 10.5C11.045 10.5 12.05 9.495 12.05 8.25V3.75C12.05 2.505 11.045 1.5 9.79999 1.5C8.55499 1.5 7.54999 2.505 7.54999 3.75V8.25C7.54999 9.495 8.55499 10.5 9.79999 10.5Z" fill="#A1A1AA"/>
<path d="M13.55 8.25C13.55 10.32 11.87 12 9.79999 12C7.72999 12 6.04999 10.32 6.04999 8.25H4.54999C4.54999 10.8975 6.50749 13.0725 9.04999 13.44V15.75H10.55V13.44C13.0925 13.0725 15.05 10.8975 15.05 8.25H13.55V8.25Z" fill="#A1A1AA"/>
</g>
<defs>
<clipPath id="clip0_5060_70321">
<rect width="18" height="18" fill="white" transform="translate(0.799988)"/>
</clipPath>
</defs>
</svg>
