<svg width="268" height="26" viewBox="0 0 268 26" fill="none" xmlns="http://www.w3.org/2000/svg">
<path d="M11.544 25.224C9.47467 25.224 7.56533 24.744 5.816 23.784C4.088 22.8027 2.712 21.448 1.688 19.72C0.685333 17.9707 0.184 16.008 0.184 13.832C0.184 11.656 0.685333 9.704 1.688 7.976C2.712 6.248 4.088 4.904 5.816 3.944C7.56533 2.96266 9.47467 2.472 11.544 2.472C13.6347 2.472 15.544 2.96266 17.272 3.944C19.0213 4.904 20.3973 6.248 21.4 7.976C22.4027 9.704 22.904 11.656 22.904 13.832C22.904 16.008 22.4027 17.9707 21.4 19.72C20.3973 21.448 19.0213 22.8027 17.272 23.784C15.544 24.744 13.6347 25.224 11.544 25.224ZM11.544 22.056C13.016 22.056 14.328 21.7253 15.48 21.064C16.632 20.3813 17.528 19.4213 18.168 18.184C18.8293 16.9253 19.16 15.4747 19.16 13.832C19.16 12.1893 18.8293 10.7493 18.168 9.512C17.528 8.27467 16.632 7.32533 15.48 6.664C14.328 6.00267 13.016 5.672 11.544 5.672C10.072 5.672 8.76 6.00267 7.608 6.664C6.456 7.32533 5.54933 8.27467 4.888 9.512C4.248 10.7493 3.928 12.1893 3.928 13.832C3.928 15.4747 4.248 16.9253 4.888 18.184C5.54933 19.4213 6.456 20.3813 7.608 21.064C8.76 21.7253 10.072 22.056 11.544 22.056ZM30.1418 9.928C30.6751 9.032 31.3791 8.33867 32.2538 7.848C33.1498 7.336 34.2058 7.08 35.4218 7.08V10.856H34.4938C33.0644 10.856 31.9764 11.2187 31.2298 11.944C30.5044 12.6693 30.1418 13.928 30.1418 15.72V25H26.4938V7.368H30.1418V9.928ZM37.559 16.104C37.559 14.3333 37.9217 12.7653 38.647 11.4C39.3937 10.0347 40.3963 8.97867 41.655 8.232C42.935 7.464 44.3537 7.08 45.911 7.08C47.063 7.08 48.1937 7.336 49.303 7.848C50.4337 8.33867 51.3297 9 51.991 9.832V1.32H55.671V25H51.991V22.344C51.3937 23.1973 50.5617 23.9013 49.495 24.456C48.4497 25.0107 47.2443 25.288 45.879 25.288C44.343 25.288 42.935 24.904 41.655 24.136C40.3963 23.3467 39.3937 22.2587 38.647 20.872C37.9217 19.464 37.559 17.8747 37.559 16.104ZM51.991 16.168C51.991 14.952 51.735 13.896 51.223 13C50.7323 12.104 50.0817 11.4213 49.271 10.952C48.4603 10.4827 47.5857 10.248 46.647 10.248C45.7083 10.248 44.8337 10.4827 44.023 10.952C43.2123 11.4 42.551 12.072 42.039 12.968C41.5483 13.8427 41.303 14.888 41.303 16.104C41.303 17.32 41.5483 18.3867 42.039 19.304C42.551 20.2213 43.2123 20.9253 44.023 21.416C44.855 21.8853 45.7297 22.12 46.647 22.12C47.5857 22.12 48.4603 21.8853 49.271 21.416C50.0817 20.9467 50.7323 20.264 51.223 19.368C51.735 18.4507 51.991 17.384 51.991 16.168ZM76.6225 15.752C76.6225 16.4133 76.5798 17.0107 76.4945 17.544H63.0225C63.1292 18.952 63.6518 20.0827 64.5905 20.936C65.5292 21.7893 66.6812 22.216 68.0465 22.216C70.0092 22.216 71.3958 21.3947 72.2065 19.752H76.1425C75.6092 21.3733 74.6385 22.7067 73.2305 23.752C71.8438 24.776 70.1158 25.288 68.0465 25.288C66.3612 25.288 64.8465 24.9147 63.5025 24.168C62.1798 23.4 61.1345 22.3333 60.3665 20.968C59.6198 19.5813 59.2465 17.9813 59.2465 16.168C59.2465 14.3547 59.6092 12.7653 60.3345 11.4C61.0812 10.0133 62.1158 8.94667 63.4385 8.2C64.7825 7.45333 66.3185 7.08 68.0465 7.08C69.7105 7.08 71.1932 7.44267 72.4945 8.168C73.7958 8.89333 74.8092 9.91733 75.5345 11.24C76.2598 12.5413 76.6225 14.0453 76.6225 15.752ZM72.8145 14.6C72.7932 13.256 72.3132 12.1787 71.3745 11.368C70.4358 10.5573 69.2732 10.152 67.8865 10.152C66.6278 10.152 65.5505 10.5573 64.6545 11.368C63.7585 12.1573 63.2252 13.2347 63.0545 14.6H72.8145ZM83.8605 9.928C84.3938 9.032 85.0978 8.33867 85.9725 7.848C86.8685 7.336 87.9245 7.08 89.1405 7.08V10.856H88.2125C86.7832 10.856 85.6952 11.2187 84.9485 11.944C84.2232 12.6693 83.8605 13.928 83.8605 15.72V25H80.2125V7.368H83.8605V9.928ZM99.5903 13.832C99.5903 11.656 100.092 9.704 101.094 7.976C102.118 6.248 103.494 4.904 105.222 3.944C106.972 2.96266 108.881 2.472 110.95 2.472C113.318 2.472 115.42 3.05866 117.254 4.232C119.11 5.384 120.454 7.02667 121.286 9.16H116.902C116.326 7.98667 115.526 7.112 114.502 6.536C113.478 5.96 112.294 5.672 110.95 5.672C109.478 5.672 108.166 6.00267 107.014 6.664C105.862 7.32533 104.956 8.27467 104.294 9.512C103.654 10.7493 103.334 12.1893 103.334 13.832C103.334 15.4747 103.654 16.9147 104.294 18.152C104.956 19.3893 105.862 20.3493 107.014 21.032C108.166 21.6933 109.478 22.024 110.95 22.024C112.294 22.024 113.478 21.736 114.502 21.16C115.526 20.584 116.326 19.7093 116.902 18.536H121.286C120.454 20.6693 119.11 22.312 117.254 23.464C115.42 24.616 113.318 25.192 110.95 25.192C108.86 25.192 106.95 24.712 105.222 23.752C103.494 22.7707 102.118 21.416 101.094 19.688C100.092 17.96 99.5903 16.008 99.5903 13.832ZM133.204 25.288C131.54 25.288 130.036 24.9147 128.692 24.168C127.348 23.4 126.292 22.3333 125.524 20.968C124.756 19.5813 124.372 17.9813 124.372 16.168C124.372 14.376 124.767 12.7867 125.556 11.4C126.346 10.0133 127.423 8.94667 128.788 8.2C130.154 7.45333 131.679 7.08 133.364 7.08C135.05 7.08 136.575 7.45333 137.94 8.2C139.306 8.94667 140.383 10.0133 141.172 11.4C141.962 12.7867 142.356 14.376 142.356 16.168C142.356 17.96 141.951 19.5493 141.14 20.936C140.33 22.3227 139.22 23.4 137.812 24.168C136.426 24.9147 134.89 25.288 133.204 25.288ZM133.204 22.12C134.143 22.12 135.018 21.896 135.828 21.448C136.66 21 137.332 20.328 137.844 19.432C138.356 18.536 138.612 17.448 138.612 16.168C138.612 14.888 138.367 13.8107 137.876 12.936C137.386 12.04 136.735 11.368 135.924 10.92C135.114 10.472 134.239 10.248 133.3 10.248C132.362 10.248 131.487 10.472 130.676 10.92C129.887 11.368 129.258 12.04 128.788 12.936C128.319 13.8107 128.084 14.888 128.084 16.168C128.084 18.0667 128.564 19.5387 129.524 20.584C130.506 21.608 131.732 22.12 133.204 22.12ZM154.859 7.08C156.245 7.08 157.483 7.368 158.571 7.944C159.68 8.52 160.544 9.37333 161.163 10.504C161.781 11.6347 162.091 13 162.091 14.6V25H158.475V15.144C158.475 13.5653 158.08 12.36 157.291 11.528C156.501 10.6747 155.424 10.248 154.059 10.248C152.693 10.248 151.605 10.6747 150.795 11.528C150.005 12.36 149.611 13.5653 149.611 15.144V25H145.963V7.368H149.611V9.384C150.208 8.65867 150.965 8.09333 151.883 7.688C152.821 7.28267 153.813 7.08 154.859 7.08ZM174.136 10.344H170.872V25H167.192V10.344H165.112V7.368H167.192V6.12C167.192 4.09333 167.725 2.62133 168.792 1.704C169.88 0.765333 171.576 0.296 173.88 0.296V3.336C172.77 3.336 171.992 3.54933 171.544 3.976C171.096 4.38133 170.872 5.096 170.872 6.12V7.368H174.136V10.344ZM179.225 5.032C178.563 5.032 178.009 4.808 177.561 4.36C177.113 3.912 176.889 3.35733 176.889 2.696C176.889 2.03467 177.113 1.48 177.561 1.032C178.009 0.583999 178.563 0.359999 179.225 0.359999C179.865 0.359999 180.409 0.583999 180.857 1.032C181.305 1.48 181.529 2.03467 181.529 2.696C181.529 3.35733 181.305 3.912 180.857 4.36C180.409 4.808 179.865 5.032 179.225 5.032ZM181.017 7.368V25H177.369V7.368H181.017ZM189.454 9.928C189.988 9.032 190.692 8.33867 191.566 7.848C192.462 7.336 193.518 7.08 194.734 7.08V10.856H193.806C192.377 10.856 191.289 11.2187 190.542 11.944C189.817 12.6693 189.454 13.928 189.454 15.72V25H185.806V7.368H189.454V9.928ZM219.432 7.08C220.818 7.08 222.056 7.368 223.144 7.944C224.253 8.52 225.117 9.37333 225.736 10.504C226.376 11.6347 226.696 13 226.696 14.6V25H223.08V15.144C223.08 13.5653 222.685 12.36 221.896 11.528C221.106 10.6747 220.029 10.248 218.664 10.248C217.298 10.248 216.21 10.6747 215.4 11.528C214.61 12.36 214.216 13.5653 214.216 15.144V25H210.6V15.144C210.6 13.5653 210.205 12.36 209.416 11.528C208.626 10.6747 207.549 10.248 206.184 10.248C204.818 10.248 203.73 10.6747 202.92 11.528C202.13 12.36 201.736 13.5653 201.736 15.144V25H198.088V7.368H201.736V9.384C202.333 8.65867 203.09 8.09333 204.008 7.688C204.925 7.28267 205.906 7.08 206.952 7.08C208.36 7.08 209.618 7.37867 210.728 7.976C211.837 8.57333 212.69 9.43733 213.288 10.568C213.821 9.50133 214.653 8.65867 215.784 8.04C216.914 7.4 218.13 7.08 219.432 7.08ZM247.498 15.752C247.498 16.4133 247.455 17.0107 247.37 17.544H233.898C234.004 18.952 234.527 20.0827 235.466 20.936C236.404 21.7893 237.556 22.216 238.922 22.216C240.884 22.216 242.271 21.3947 243.082 19.752H247.017C246.484 21.3733 245.514 22.7067 244.106 23.752C242.719 24.776 240.991 25.288 238.922 25.288C237.236 25.288 235.722 24.9147 234.378 24.168C233.055 23.4 232.01 22.3333 231.242 20.968C230.495 19.5813 230.122 17.9813 230.122 16.168C230.122 14.3547 230.484 12.7653 231.21 11.4C231.956 10.0133 232.991 8.94667 234.314 8.2C235.658 7.45333 237.194 7.08 238.922 7.08C240.586 7.08 242.068 7.44267 243.37 8.168C244.671 8.89333 245.684 9.91733 246.41 11.24C247.135 12.5413 247.498 14.0453 247.498 15.752ZM243.69 14.6C243.668 13.256 243.188 12.1787 242.25 11.368C241.311 10.5573 240.148 10.152 238.762 10.152C237.503 10.152 236.426 10.5573 235.53 11.368C234.634 12.1573 234.1 13.2347 233.93 14.6H243.69ZM249.872 16.104C249.872 14.3333 250.234 12.7653 250.96 11.4C251.706 10.0347 252.709 8.97867 253.968 8.232C255.248 7.464 256.666 7.08 258.224 7.08C259.376 7.08 260.506 7.336 261.616 7.848C262.746 8.33867 263.642 9 264.304 9.832V1.32H267.984V25H264.304V22.344C263.706 23.1973 262.874 23.9013 261.808 24.456C260.762 25.0107 259.557 25.288 258.192 25.288C256.656 25.288 255.248 24.904 253.968 24.136C252.709 23.3467 251.706 22.2587 250.96 20.872C250.234 19.464 249.872 17.8747 249.872 16.104ZM264.304 16.168C264.304 14.952 264.048 13.896 263.536 13C263.045 12.104 262.394 11.4213 261.584 10.952C260.773 10.4827 259.898 10.248 258.96 10.248C258.021 10.248 257.146 10.4827 256.336 10.952C255.525 11.4 254.864 12.072 254.352 12.968C253.861 13.8427 253.616 14.888 253.616 16.104C253.616 17.32 253.861 18.3867 254.352 19.304C254.864 20.2213 255.525 20.9253 256.336 21.416C257.168 21.8853 258.042 22.12 258.96 22.12C259.898 22.12 260.773 21.8853 261.584 21.416C262.394 20.9467 263.045 20.264 263.536 19.368C264.048 18.4507 264.304 17.384 264.304 16.168Z" fill="#059669"/>
</svg>
