<svg width="25" height="24" viewBox="0 0 25 24" fill="none" xmlns="http://www.w3.org/2000/svg">
<g id="box-seam 1" clip-path="url(#clip0_10641_78556)">
<path id="Vector" fill-rule="evenodd" clip-rule="evenodd" d="M12.2936 1.66949C12.1146 1.59772 11.9147 1.59772 11.7356 1.66949L2.78365 5.24999L6.38965 6.69149L15.6206 2.99999L12.2936 1.66949ZM17.6396 3.80849L8.40865 7.49999L12.0146 8.94149L21.2456 5.24999L17.6396 3.80849ZM22.5146 6.35849L12.7646 10.2585V22.1415L22.5146 18.2415V6.35849ZM11.2646 22.143V10.257L1.51465 6.35849V18.243L11.2646 22.143ZM11.1791 0.275988C11.7155 0.061487 12.3138 0.061487 12.8501 0.275988L23.5436 4.55399C23.6827 4.60971 23.8018 4.70578 23.8858 4.82982C23.9697 4.95387 24.0146 5.10021 24.0146 5.24999V18.243C24.0145 18.5427 23.9245 18.8355 23.7563 19.0836C23.5881 19.3317 23.3495 19.5238 23.0711 19.635L12.2936 23.946C12.1146 24.0178 11.9147 24.0178 11.7356 23.946L0.959648 19.635C0.681025 19.524 0.442062 19.3321 0.273612 19.084C0.105161 18.8358 0.0149579 18.5429 0.0146484 18.243L0.0146484 5.24999C0.0146833 5.10021 0.0595641 4.95387 0.143509 4.82982C0.227454 4.70578 0.346617 4.60971 0.485648 4.55399L11.1791 0.275988Z" fill="white"/>
</g>
<defs>
<clipPath id="clip0_10641_78556">
<rect width="24" height="24" fill="white" transform="translate(0.0146484)"/>
</clipPath>
</defs>
</svg>
