<svg width="24" height="24" viewBox="0 0 24 24" fill="none" xmlns="http://www.w3.org/2000/svg">
<path d="M20.7501 12L21.8541 10.092C21.9868 9.86244 22.0229 9.58958 21.9544 9.33343C21.886 9.07727 21.7186 8.85878 21.4891 8.726L19.5791 7.622V5.422C19.5791 5.15678 19.4738 4.90243 19.2862 4.71489C19.0987 4.52735 18.8443 4.422 18.5791 4.422H16.3801L15.2771 2.513C15.1439 2.28391 14.9258 2.1165 14.6701 2.047C14.5433 2.01261 14.4109 2.00375 14.2806 2.02091C14.1503 2.03808 14.0247 2.08093 13.9111 2.147L12.0011 3.251L10.0911 2.146C9.86143 2.01339 9.58848 1.97746 9.33231 2.0461C9.07614 2.11474 8.85772 2.28232 8.72511 2.512L7.62111 4.422H5.42211C5.15689 4.422 4.90254 4.52735 4.715 4.71489C4.52747 4.90243 4.42211 5.15678 4.42211 5.422V7.621L2.51211 8.725C2.39814 8.79055 2.29825 8.87798 2.21817 8.98226C2.1381 9.08654 2.07942 9.20561 2.0455 9.33264C2.01158 9.45966 2.0031 9.59214 2.02054 9.72246C2.03797 9.85277 2.08099 9.97836 2.14711 10.092L3.25111 12L2.14711 13.908C2.0151 14.1378 1.97928 14.4104 2.04747 14.6665C2.11565 14.9226 2.28231 15.1413 2.51111 15.275L4.42111 16.379V18.578C4.42111 18.8432 4.52647 19.0976 4.714 19.2851C4.90154 19.4726 5.15589 19.578 5.42111 19.578H7.62111L8.72511 21.488C8.81364 21.6393 8.94005 21.765 9.09189 21.8527C9.24373 21.9404 9.41578 21.987 9.59111 21.988C9.76511 21.988 9.93811 21.942 10.0921 21.853L12.0001 20.749L13.9101 21.853C14.1397 21.9854 14.4125 22.0213 14.6686 21.9529C14.9247 21.8845 15.1431 21.7173 15.2761 21.488L16.3791 19.578H18.5781C18.8433 19.578 19.0977 19.4726 19.2852 19.2851C19.4728 19.0976 19.5781 18.8432 19.5781 18.578V16.379L21.4881 15.275C21.6019 15.2092 21.7016 15.1217 21.7815 15.0174C21.8614 14.9131 21.92 14.7941 21.9539 14.6671C21.9878 14.5402 21.9964 14.4078 21.9791 14.2775C21.9618 14.1473 21.919 14.0217 21.8531 13.908L20.7501 12ZM9.50011 6.99C9.89807 6.99013 10.2797 7.14834 10.561 7.42984C10.8423 7.71133 11.0002 8.09304 11.0001 8.491C11 8.88895 10.8418 9.27056 10.5603 9.55186C10.2788 9.83317 9.89707 9.99113 9.49911 9.991C9.10115 9.99086 8.71955 9.83265 8.43824 9.55116C8.15694 9.26966 7.99898 8.88795 7.99911 8.49C7.99924 8.09204 8.15746 7.71043 8.43895 7.42913C8.72044 7.14783 9.10215 6.98986 9.50011 6.99ZM9.80011 16.59L8.20011 15.391L14.2001 7.391L15.8001 8.59L9.80011 16.59ZM14.5001 16.99C14.3031 16.9899 14.108 16.9511 13.9259 16.8756C13.7439 16.8001 13.5785 16.6895 13.4392 16.5502C13.3 16.4108 13.1895 16.2453 13.1141 16.0633C13.0388 15.8812 13 15.686 13.0001 15.489C13.0002 15.2919 13.0391 15.0968 13.1145 14.9148C13.19 14.7328 13.3006 14.5674 13.4399 14.4281C13.5793 14.2888 13.7448 14.1784 13.9269 14.103C14.1089 14.0277 14.3041 13.9889 14.5011 13.989C14.8991 13.9891 15.2807 14.1473 15.562 14.4288C15.8433 14.7103 16.0012 15.092 16.0011 15.49C16.001 15.888 15.8428 16.2696 15.5613 16.5509C15.2798 16.8322 14.8981 16.9901 14.5001 16.99Z" fill="#323232"/>
</svg>
