<svg width="22" height="22" viewBox="0 0 22 22" fill="none" xmlns="http://www.w3.org/2000/svg">
<path fill-rule="evenodd" clip-rule="evenodd" d="M0.486582 3.01538C0.486582 1.8678 1.41688 0.9375 2.56447 0.9375C2.87942 0.9375 3.19025 1.0091 3.47346 1.14688L19.7171 9.0492C20.5544 9.45651 21.0859 10.306 21.0859 11.2371C21.0859 12.1682 20.5544 13.0177 19.7171 13.425L3.47346 21.3274C3.19025 21.4651 2.87941 21.5368 2.56447 21.5368C1.41688 21.5368 0.486582 20.6064 0.486582 19.4588C0.486582 19.2783 0.474202 19.0954 0.527985 18.9206L2.40064 12.8344C2.49707 12.521 2.75039 12.2809 3.06848 12.2015L6.92563 11.2371L3.06848 10.2728C2.75039 10.1933 2.49707 9.95323 2.40064 9.63984L0.527985 3.55369C0.474202 3.37889 0.486582 3.19589 0.486582 3.01538ZM2.56447 2.81016C2.45112 2.81016 2.35924 2.90204 2.35924 3.01538V3.13753L4.03514 8.58421L11.0133 10.3288C11.4301 10.4329 11.7226 10.8074 11.7226 11.2371C11.7226 11.6668 11.4301 12.0413 11.0133 12.1455L4.03514 13.89L2.35924 19.3368V19.4588C2.35924 19.5722 2.45112 19.6641 2.56447 19.6641C2.59557 19.6641 2.62627 19.657 2.65424 19.6434L18.8979 11.7411C19.0907 11.6472 19.2132 11.4516 19.2132 11.2371C19.2132 11.0226 19.0907 10.827 18.8979 10.7332L2.65424 2.83084C2.62627 2.81723 2.59557 2.81016 2.56447 2.81016Z" fill="#D9D9D9"/>
</svg>
