<svg width="24" height="25" viewBox="0 0 24 25" fill="none" xmlns="http://www.w3.org/2000/svg">
<g id="uil:search">
<path id="Vector" d="M21.7114 20.3398L18.0014 16.6598C19.4415 14.8642 20.1389 12.5851 19.9502 10.2911C19.7615 7.99712 18.701 5.8626 16.9869 4.32646C15.2727 2.79032 13.0352 1.96933 10.7343 2.03229C8.43341 2.09525 6.24409 3.03738 4.61651 4.66496C2.98893 6.29254 2.0468 8.48185 1.98384 10.7827C1.92088 13.0836 2.74188 15.3212 4.27801 17.0353C5.81415 18.7495 7.94867 19.8099 10.2427 19.9986C12.5367 20.1873 14.8158 19.4899 16.6114 18.0498L20.2914 21.7298C20.3843 21.8235 20.4949 21.8979 20.6168 21.9487C20.7387 21.9995 20.8694 22.0256 21.0014 22.0256C21.1334 22.0256 21.2641 21.9995 21.3859 21.9487C21.5078 21.8979 21.6184 21.8235 21.7114 21.7298C21.8916 21.5434 21.9924 21.2942 21.9924 21.0348C21.9924 20.7755 21.8916 20.5263 21.7114 20.3398ZM11.0014 18.0498C9.6169 18.0498 8.26352 17.6393 7.11238 16.8701C5.96123 16.1009 5.06403 15.0077 4.53421 13.7286C4.0044 12.4495 3.86578 11.0421 4.13587 9.68418C4.40597 8.32632 5.07265 7.07904 6.05162 6.10007C7.03059 5.1211 8.27787 4.45442 9.63574 4.18432C10.9936 3.91422 12.4011 4.05285 13.6802 4.58266C14.9592 5.11247 16.0525 6.00968 16.8217 7.16082C17.5908 8.31197 18.0014 9.66535 18.0014 11.0498C18.0014 12.9063 17.2639 14.6868 15.9511 15.9996C14.6384 17.3123 12.8579 18.0498 11.0014 18.0498Z" fill="black"/>
</g>
</svg>
