<svg width="77" height="57" viewBox="0 0 77 57" fill="none" xmlns="http://www.w3.org/2000/svg">
<path d="M60.1661 56.8592H47.7208H44.3696H43.6458V40.1659H49.1054C50.4899 40.1659 51.3081 38.5926 50.4899 37.4597L39.8698 22.7646C39.1933 21.8206 37.793 21.8206 37.1164 22.7646L26.4963 37.4597C25.6781 38.5926 26.4805 40.1659 27.8808 40.1659H33.3404V56.8592H32.6166H29.2654H14.8377C6.5776 56.4029 0.000976562 48.6778 0.000976562 40.3075C0.000976562 34.5333 3.13195 29.4986 7.77335 26.7767C7.34855 25.6281 7.12828 24.4009 7.12828 23.1107C7.12828 17.2107 11.8955 12.4434 17.7956 12.4434C19.07 12.4434 20.2973 12.6637 21.4458 13.0885C24.86 5.85103 32.2233 0.832031 40.7823 0.832031C51.8588 0.847765 60.9842 9.32815 62.0226 20.1371C70.5345 21.6003 77.001 29.4828 77.001 38.4038C77.001 47.9383 69.5747 56.1984 60.1661 56.8592Z" fill="#B28A5B"/>
<path d="M60.1661 56.8592H47.7208H44.3696H43.6458V40.1659H49.1054C50.4899 40.1659 51.3081 38.5926 50.4899 37.4597L39.8698 22.7646C39.1933 21.8206 37.793 21.8206 37.1164 22.7646L26.4963 37.4597C25.6781 38.5926 26.4805 40.1659 27.8808 40.1659H33.3404V56.8592H32.6166H29.2654H14.8377C6.5776 56.4029 0.000976562 48.6778 0.000976562 40.3075C0.000976562 34.5333 3.13195 29.4986 7.77335 26.7767C7.34855 25.6281 7.12828 24.4009 7.12828 23.1107C7.12828 17.2107 11.8955 12.4434 17.7956 12.4434C19.07 12.4434 20.2973 12.6637 21.4458 13.0885C24.86 5.85103 32.2233 0.832031 40.7823 0.832031C51.8588 0.847765 60.9842 9.32815 62.0226 20.1371C70.5345 21.6003 77.001 29.4828 77.001 38.4038C77.001 47.9383 69.5747 56.1984 60.1661 56.8592Z" fill="url(#paint0_linear_7799_90821)"/>
<defs>
<linearGradient id="paint0_linear_7799_90821" x1="38.501" y1="0.832031" x2="38.5197" y2="56.8514" gradientUnits="userSpaceOnUse">
<stop stop-color="#EB8105"/>
<stop offset="1" stop-color="#FAAC06"/>
</linearGradient>
</defs>
</svg>
