<svg width="24" height="24" viewBox="0 0 24 24" fill="none" xmlns="http://www.w3.org/2000/svg">
<path d="M8.89185 19.835C9.64875 20.2703 10.5473 20.388 11.3908 20.1621C12.2342 19.9362 12.9538 19.3853 13.3919 18.63L17.5719 11.4C17.6902 11.1952 17.767 10.969 17.7978 10.7345C17.8287 10.5 17.813 10.2617 17.7517 10.0332C17.6904 9.80472 17.5847 9.59057 17.4406 9.40299C17.2965 9.21541 17.1168 9.05808 16.9119 8.93998L15.6619 8.21998M8.72685 19.74C8.03916 19.3417 7.53761 18.6867 7.33231 17.919C7.12702 17.1512 7.23475 16.3334 7.63185 15.645L10.7969 10.145C11.0342 9.73176 11.0981 9.24126 10.9743 8.78105C10.8506 8.32084 10.5494 7.92847 10.1369 7.68998L7.83685 6.36498C7.63288 6.2459 7.40735 6.16837 7.17327 6.13686C6.93919 6.10534 6.70119 6.12046 6.47298 6.18135C6.24477 6.24223 6.03087 6.34768 5.8436 6.49162C5.65633 6.63555 5.4994 6.81512 5.38185 7.01998L2.81685 11.5C2.26566 12.4613 2.11771 13.6018 2.40539 14.6719C2.69307 15.742 3.39294 16.6546 4.35185 17.21L6.13185 18.24L8.72685 19.74Z" stroke="black" stroke-linecap="round" stroke-linejoin="round"/>
<path d="M20.0991 6.91006C20.4745 7.12561 20.8037 7.41312 21.0677 7.75613C21.3318 8.09913 21.5256 8.49088 21.638 8.90892C21.7505 9.32697 21.7793 9.76308 21.7228 10.1923C21.6663 10.6215 21.5257 11.0353 21.3091 11.4101L18.3591 16.5001C18.1196 16.913 17.7264 17.2143 17.2653 17.3379C16.8043 17.4616 16.313 17.3977 15.8991 17.1601L14.6491 16.4351M9.08406 7.10006L9.82406 5.82006C10.3814 4.8564 11.2985 4.15343 12.3739 3.8656C13.4492 3.57778 14.5949 3.72865 15.5591 4.28506L17.3391 5.31506L19.9341 6.81506C19.2451 6.41837 18.4268 6.3114 17.6589 6.51766C16.8911 6.72391 16.2366 7.22652 15.8391 7.91506L11.4991 15.4001C11.2606 15.8126 10.8682 16.1138 10.408 16.2375C9.94778 16.3613 9.45729 16.2974 9.04406 16.0601L7.78906 15.3351" stroke="black" stroke-linecap="round" stroke-linejoin="round"/>
</svg>
