<svg width="54" height="52" viewBox="0 0 54 52" fill="none" xmlns="http://www.w3.org/2000/svg">
<path d="M53.342 27.3193C54.0045 26.5645 54.0045 25.4355 53.342 24.6807L48.9675 19.6966C48.6052 19.2838 48.4286 18.7402 48.4791 18.1933L49.0887 11.5959C49.181 10.5968 48.5187 9.68389 47.5402 9.46163L41.0625 7.99024C40.5278 7.86878 40.0664 7.53311 39.7862 7.06174L36.3963 1.35815C35.8835 0.4952 34.8103 0.14615 33.8879 0.542243L27.7891 3.16114C27.2853 3.3775 26.7147 3.3775 26.2109 3.16114L20.1121 0.542243C19.1897 0.14615 18.1165 0.4952 17.6037 1.35815L14.2154 7.05906C13.9343 7.532 13.4708 7.86826 12.934 7.98871L6.46539 9.44011C5.48436 9.66023 4.81924 10.5744 4.91174 11.5756L5.52104 18.1704C5.57146 18.7161 5.39576 19.2585 5.03501 19.671L0.653527 24.681C-0.00671405 25.436 -0.00570989 26.5632 0.655874 27.3169L5.03267 32.3036C5.39485 32.7163 5.57147 33.2597 5.52109 33.8064L4.91084 40.4295C4.81879 41.4285 5.48109 42.3411 6.45939 42.5633L12.9375 44.0348C13.4722 44.1562 13.9336 44.4919 14.2138 44.9633L17.6014 50.6631C18.1153 51.5277 19.1912 51.8762 20.1144 51.477L26.209 48.842C26.7139 48.6237 27.2864 48.623 27.7918 48.84L33.8879 51.4578C34.8103 51.8539 35.8835 51.5048 36.3963 50.6419L39.7862 44.9383C40.0664 44.4669 40.5278 44.1312 41.0625 44.0098L47.5402 42.5384C48.5187 42.3161 49.181 41.4032 49.0887 40.4041L48.4791 33.8067C48.4286 33.2598 48.6052 32.7162 48.9675 32.3034L53.342 27.3193ZM23.4142 37.0858C22.6332 37.8668 21.3668 37.8668 20.5858 37.0858L13.4142 29.9142C12.6332 29.1332 12.6332 27.8668 13.4142 27.0858L14.1135 26.3865C14.8935 25.6065 16.1577 25.6053 16.9392 26.3838L20.5858 30.0163C21.3673 30.7947 22.6315 30.7935 23.4115 30.0135L37.0558 16.3692C37.8388 15.5862 39.109 15.5885 39.8892 16.3742L40.5958 17.0858C41.3721 17.8677 41.3699 19.1301 40.5908 19.9092L23.4142 37.0858Z" fill="#059669"/>
</svg>
