<svg width="14" height="13" viewBox="0 0 14 13" fill="none" xmlns="http://www.w3.org/2000/svg">
<path d="M7.14575 10.5938L7.08325 10.6562L7.0145 10.5938C4.04575 7.9 2.08325 6.11875 2.08325 4.3125C2.08325 3.0625 3.02075 2.125 4.27075 2.125C5.23325 2.125 6.17075 2.75 6.502 3.6H7.6645C7.99575 2.75 8.93325 2.125 9.89575 2.125C11.1458 2.125 12.0833 3.0625 12.0833 4.3125C12.0833 6.11875 10.1208 7.9 7.14575 10.5938ZM9.89575 0.875C8.80825 0.875 7.7645 1.38125 7.08325 2.175C6.402 1.38125 5.35825 0.875 4.27075 0.875C2.34575 0.875 0.833252 2.38125 0.833252 4.3125C0.833252 6.66875 2.95825 8.6 6.177 11.5188L7.08325 12.3438L7.9895 11.5188C11.2083 8.6 13.3333 6.66875 13.3333 4.3125C13.3333 2.38125 11.8208 0.875 9.89575 0.875Z" fill="#18181B"/>
</svg>
