<svg width="27" height="27" viewBox="0 0 27 27" fill="none" xmlns="http://www.w3.org/2000/svg">
<path d="M6.43426 6.435C6.59246 6.277 6.80691 6.18825 7.03051 6.18825C7.2541 6.18825 7.46855 6.277 7.62676 6.435L13.4993 12.3075L19.3718 6.435C19.4749 6.32394 19.6061 6.24275 19.7515 6.19998C19.8969 6.15721 20.0511 6.15446 20.198 6.192C20.3448 6.22955 20.4788 6.306 20.5858 6.41331C20.6929 6.52063 20.769 6.65482 20.8061 6.80175C20.8437 6.94843 20.8411 7.10252 20.7985 7.24783C20.756 7.39314 20.675 7.52429 20.5643 7.6275L14.6918 13.5L20.5643 19.3725C20.6753 19.4756 20.7565 19.6068 20.7993 19.7522C20.842 19.8976 20.8448 20.0519 20.8073 20.1987C20.7697 20.3455 20.6933 20.4795 20.5859 20.5866C20.4786 20.6936 20.3444 20.7697 20.1975 20.8069C20.0508 20.8445 19.8967 20.8418 19.7514 20.7993C19.6061 20.7567 19.475 20.6758 19.3718 20.565L13.4993 14.6925L7.62676 20.565C7.46671 20.714 7.25516 20.7951 7.03655 20.7913C6.81794 20.7875 6.60931 20.6992 6.45451 20.5448C6.30011 20.3899 6.21173 20.1813 6.20796 19.9627C6.20418 19.7441 6.2853 19.5325 6.43426 19.3725L12.3068 13.5L6.43426 7.6275C6.27625 7.4693 6.1875 7.25485 6.1875 7.03125C6.1875 6.80766 6.27625 6.59321 6.43426 6.435Z" fill="black"/>
</svg>
