<svg width="16" height="16" viewBox="0 0 16 16" fill="none" xmlns="http://www.w3.org/2000/svg">
<g id="ic:outline-info">
<path id="Vector" d="M7.33594 4.66732H8.66927V6.00065H7.33594V4.66732ZM7.33594 7.33398H8.66927V11.334H7.33594V7.33398ZM8.0026 1.33398C4.3226 1.33398 1.33594 4.32065 1.33594 8.00065C1.33594 11.6807 4.3226 14.6673 8.0026 14.6673C11.6826 14.6673 14.6693 11.6807 14.6693 8.00065C14.6693 4.32065 11.6826 1.33398 8.0026 1.33398ZM8.0026 13.334C5.0626 13.334 2.66927 10.9406 2.66927 8.00065C2.66927 5.06065 5.0626 2.66732 8.0026 2.66732C10.9426 2.66732 13.3359 5.06065 13.3359 8.00065C13.3359 10.9406 10.9426 13.334 8.0026 13.334Z" fill="black"/>
</g>
</svg>
