<svg width="13" height="13" viewBox="0 0 13 13" fill="none" xmlns="http://www.w3.org/2000/svg">
<path d="M5.70911 2.14724C5.88477 1.60798 6.6477 1.60798 6.82276 2.14724L7.44927 4.07477C7.48755 4.19216 7.56195 4.29444 7.66185 4.367C7.76175 4.43956 7.88204 4.47868 8.00551 4.47878H10.0326C10.5999 4.47878 10.8353 5.20482 10.3769 5.53856L8.73741 6.72951C8.6373 6.80213 8.56276 6.90458 8.52447 7.02218C8.48619 7.13977 8.48612 7.26648 8.52428 7.38411L9.15078 9.31164C9.32644 9.8509 8.70872 10.3 8.24909 9.96625L6.60964 8.7753C6.50963 8.7027 6.38922 8.6636 6.26564 8.6636C6.14207 8.6636 6.02166 8.7027 5.92165 8.7753L4.2822 9.96625C3.82316 10.3 3.20602 9.8509 3.38109 9.31164L4.0076 7.38411C4.04576 7.26648 4.04569 7.13977 4.0074 7.02218C3.96911 6.90458 3.89457 6.80213 3.79447 6.72951L2.1556 5.53915C1.69714 5.2054 1.93311 4.47936 2.49989 4.47936H4.52636C4.64994 4.47939 4.77035 4.44033 4.87037 4.36776C4.97039 4.29519 5.04488 4.19284 5.08319 4.07535L5.7097 2.14783L5.70911 2.14724Z" fill="#F2C94C"/>
</svg>
