<svg width="24" height="25" viewBox="0 0 24 25" fill="none" xmlns="http://www.w3.org/2000/svg">
<path d="M8.8899 20.335C9.6468 20.7704 10.5454 20.888 11.3888 20.6621C12.2323 20.4363 12.9518 19.8853 13.3899 19.13L17.5699 11.9C17.6882 11.6952 17.765 11.469 17.7959 11.2345C17.8267 11 17.8111 10.7617 17.7498 10.5332C17.6885 10.3047 17.5828 10.0906 17.4386 9.90302C17.2945 9.71544 17.1149 9.55811 16.9099 9.44001L15.6599 8.72001M8.7249 20.24C8.0372 19.8417 7.53566 19.1868 7.33036 18.419C7.12507 17.6513 7.23279 16.8334 7.6299 16.145L10.7949 10.645C11.0323 10.2318 11.0961 9.74129 10.9724 9.28108C10.8487 8.82087 10.5475 8.4285 10.1349 8.19001L7.8349 6.86501C7.63092 6.74594 7.4054 6.6684 7.17132 6.63689C6.93724 6.60537 6.69924 6.62049 6.47103 6.68138C6.24282 6.74226 6.02892 6.84771 5.84165 6.99165C5.65438 7.13558 5.49745 7.31515 5.3799 7.52001L2.8149 12C2.2637 12.9613 2.11576 14.1018 2.40344 15.1719C2.69111 16.2421 3.39099 17.1547 4.3499 17.71L6.1299 18.74L8.7249 20.24Z" stroke="black" stroke-linecap="round" stroke-linejoin="round"/>
<path d="M20.0991 7.41C20.4745 7.62555 20.8037 7.91306 21.0677 8.25606C21.3318 8.59907 21.5256 8.99082 21.638 9.40886C21.7505 9.8269 21.7793 10.263 21.7228 10.6922C21.6663 11.1214 21.5257 11.5352 21.3091 11.91L18.3591 17C18.1196 17.4129 17.7264 17.7142 17.2653 17.8379C16.8043 17.9616 16.313 17.8976 15.8991 17.66L14.6491 16.935M9.08406 7.6L9.82406 6.32C10.3814 5.35634 11.2985 4.65337 12.3739 4.36554C13.4492 4.07771 14.5949 4.22858 15.5591 4.785L17.3391 5.815L19.9341 7.315C19.2451 6.91831 18.4268 6.81134 17.6589 7.0176C16.8911 7.22385 16.2366 7.72645 15.8391 8.415L11.4991 15.9C11.2606 16.3126 10.8682 16.6138 10.408 16.7375C9.94778 16.8612 9.45729 16.7974 9.04406 16.56L7.78906 15.835" stroke="black" stroke-linecap="round" stroke-linejoin="round"/>
</svg>
