<svg width="24" height="23" viewBox="0 0 24 23" fill="none" xmlns="http://www.w3.org/2000/svg">
<path d="M7.7625 11.5916C7.7625 12.1 7.35833 12.4875 6.84583 12.4875C6.4625 12.4875 6.17917 12.2708 6.17917 11.8625C6.17917 11.3541 6.575 10.9458 7.08333 10.9458C7.47083 10.9458 7.7625 11.1833 7.7625 11.5916ZM3.35417 9.57079H3.15833C3.09583 9.57079 3.03333 9.61246 3.025 9.68329L2.84583 10.7958L3.1875 10.7833C3.64583 10.7833 4 10.7208 4.08333 10.1916C4.17917 9.63329 3.825 9.57079 3.35417 9.57079ZM15.1875 9.57079H15C14.925 9.57079 14.875 9.61246 14.8667 9.68329L14.6917 10.7958L15.025 10.7833C15.5667 10.7833 15.9417 10.6583 15.9417 10.0333C15.9375 9.59163 15.5417 9.57079 15.1875 9.57079ZM24 4.16663V18.8333C24 19.9375 23.1042 20.8333 22 20.8333H2C0.895833 20.8333 0 19.9375 0 18.8333V4.16663C0 3.06246 0.895833 2.16663 2 2.16663H22C23.1042 2.16663 24 3.06246 24 4.16663ZM5.34583 9.80829C5.34583 8.93329 4.67083 8.64163 3.9 8.64163H2.23333C2.12917 8.64163 2.025 8.72496 2.01667 8.83746L1.33333 13.0916C1.32083 13.175 1.38333 13.2583 1.46667 13.2583H2.25833C2.37083 13.2583 2.475 13.1375 2.4875 13.0208L2.675 11.9125C2.71667 11.6125 3.225 11.7166 3.425 11.7166C4.61667 11.7166 5.34583 11.0083 5.34583 9.80829ZM8.85417 10.175H8.0625C7.90417 10.175 7.89583 10.4041 7.8875 10.5166C7.64583 10.1625 7.29583 10.1 6.9 10.1C5.87917 10.1 5.1 10.9958 5.1 11.9833C5.1 12.7958 5.60833 13.325 6.42083 13.325C6.79583 13.325 7.2625 13.1208 7.525 12.8291C7.50417 12.8916 7.48333 13.025 7.48333 13.0875C7.48333 13.1833 7.525 13.2541 7.61667 13.2541H8.33333C8.44583 13.2541 8.54167 13.1333 8.5625 13.0166L8.9875 10.3375C9 10.2583 8.9375 10.175 8.85417 10.175ZM10.5417 14.2541L13.1958 10.3958C13.2167 10.375 13.2167 10.3541 13.2167 10.325C13.2167 10.2541 13.1542 10.1791 13.0833 10.1791H12.2833C12.2125 10.1791 12.1375 10.2208 12.0958 10.2833L10.9917 11.9083L10.5333 10.3458C10.5 10.2541 10.4083 10.1791 10.3042 10.1791H9.525C9.45417 10.1791 9.39167 10.2541 9.39167 10.325C9.39167 10.375 10.2042 12.6916 10.275 12.9125C10.1625 13.0708 9.42083 14.1041 9.42083 14.2291C9.42083 14.3041 9.48333 14.3625 9.55417 14.3625H10.3542C10.4292 14.3583 10.5 14.3166 10.5417 14.2541ZM17.1792 9.80829C17.1792 8.93329 16.5042 8.64163 15.7333 8.64163H14.0792C13.9667 8.64163 13.8625 8.72496 13.85 8.83746L13.175 13.0875C13.1667 13.1708 13.2292 13.2541 13.3083 13.2541H14.1625C14.2458 13.2541 14.3083 13.1916 14.3292 13.1208L14.5167 11.9125C14.5583 11.6125 15.0667 11.7166 15.2667 11.7166C16.45 11.7166 17.1792 11.0083 17.1792 9.80829ZM20.6875 10.175H19.8958C19.7375 10.175 19.7292 10.4041 19.7167 10.5166C19.4875 10.1625 19.1333 10.1 18.7292 10.1C17.7083 10.1 16.9292 10.9958 16.9292 11.9833C16.9292 12.7958 17.4375 13.325 18.25 13.325C18.6375 13.325 19.1042 13.1208 19.3542 12.8291C19.3417 12.8916 19.3125 13.025 19.3125 13.0875C19.3125 13.1833 19.3542 13.2541 19.4458 13.2541H20.1667C20.2792 13.2541 20.375 13.1333 20.3958 13.0166L20.8208 10.3375C20.8333 10.2583 20.7708 10.175 20.6875 10.175ZM22.6667 8.78746C22.6667 8.70413 22.6042 8.64163 22.5333 8.64163H21.7625C21.7 8.64163 21.6375 8.69163 21.6292 8.75413L20.9542 13.0875L20.9417 13.1083C20.9417 13.1833 21.0042 13.2541 21.0875 13.2541H21.775C21.8792 13.2541 21.9833 13.1333 21.9917 13.0166L22.6667 8.79996V8.78746ZM18.9167 10.9458C18.4083 10.9458 18.0125 11.35 18.0125 11.8625C18.0125 12.2666 18.3042 12.4875 18.6875 12.4875C19.1875 12.4875 19.5917 12.1041 19.5917 11.5916C19.5958 11.1833 19.3042 10.9458 18.9167 10.9458Z" fill="#323232"/>
</svg>
