<svg width="24" height="25" viewBox="0 0 24 25" fill="none" xmlns="http://www.w3.org/2000/svg">
<g clipPath="url(#clip0_4551_29243)">
<path d="M15.85 8.66702C15.8366 8.66703 15.8232 8.66837 15.81 8.67101C15.13 8.86101 15.267 9.81902 14.029 9.90102H13.909C13.8915 9.9007 13.8741 9.90238 13.857 9.90602H13.856C13.8033 9.91866 13.7564 9.94876 13.723 9.99143C13.6896 10.0341 13.6716 10.0868 13.672 10.141V11.231C13.672 11.365 13.778 11.472 13.909 11.472H14.554V16.095C14.554 16.227 14.658 16.333 14.787 16.333H15.845C15.9074 16.3322 15.967 16.3067 16.0107 16.2621C16.0543 16.2175 16.0785 16.1574 16.078 16.095V11.472H16.678C16.808 11.472 16.914 11.365 16.914 11.231V10.141C16.9143 10.078 16.8896 10.0174 16.8454 9.97242C16.8012 9.92747 16.741 9.90181 16.678 9.90102H16.066V8.88601C16.0663 8.85739 16.0609 8.82899 16.0502 8.80244C16.0395 8.77589 16.0236 8.75171 16.0036 8.73128C15.9835 8.71085 15.9596 8.69457 15.9333 8.68337C15.9069 8.67217 15.8786 8.66728 15.85 8.66702ZM20.075 9.83702C19.677 9.83702 19.313 9.98702 19.033 10.232V10.108C19.0295 10.048 19.0034 9.99161 18.96 9.95006C18.9166 9.90852 18.8591 9.88492 18.799 9.88402H17.729C17.6657 9.88507 17.6054 9.91109 17.5612 9.95642C17.517 10.0017 17.4925 10.0627 17.493 10.126V16.046C17.4925 16.1093 17.517 16.1703 17.5612 16.2156C17.6054 16.2609 17.6657 16.287 17.729 16.288H18.799C18.919 16.288 19.016 16.197 19.032 16.079V11.829C19.0279 11.7259 19.0645 11.6254 19.1339 11.549C19.2033 11.4727 19.3 11.4267 19.403 11.421H19.599C19.6817 11.4275 19.7605 11.4588 19.825 11.511C19.8715 11.5499 19.9087 11.5988 19.9338 11.654C19.9589 11.7092 19.9713 11.7694 19.97 11.83V15.904L19.974 16.059C19.9737 16.1223 19.9985 16.1832 20.0429 16.2283C20.0873 16.2735 20.1477 16.2992 20.211 16.3H21.281C21.3422 16.299 21.4006 16.2746 21.4443 16.2319C21.4881 16.1891 21.5137 16.1311 21.516 16.07L21.515 11.824C21.515 11.684 21.577 11.558 21.689 11.484C21.7476 11.4453 21.815 11.4219 21.885 11.416H22.083C22.313 11.436 22.453 11.616 22.453 11.824C22.458 13.22 22.457 14.624 22.457 16.048C22.4567 16.1113 22.4815 16.1722 22.5259 16.2173C22.5703 16.2625 22.6307 16.2882 22.694 16.289H23.764C23.894 16.289 24 16.181 24 16.048V11.505C24 11.195 23.966 11.063 23.92 10.928C23.8134 10.6115 23.6106 10.3363 23.3398 10.1409C23.069 9.94543 22.7439 9.83953 22.41 9.83802H22.395C22.179 9.83819 21.9653 9.88265 21.7672 9.96864C21.5691 10.0546 21.3907 10.1804 21.243 10.338C20.952 10.03 20.543 9.83802 20.09 9.83802L20.075 9.83702ZM0.232009 9.90001C0.201279 9.90028 0.170902 9.90659 0.142612 9.91859C0.114321 9.93059 0.0886723 9.94805 0.0671289 9.96996C0.0455855 9.99188 0.0285697 10.0178 0.0170531 10.0463C0.0055366 10.0748 -0.000255148 10.1053 8.62044e-06 10.136V16.06C8.62044e-06 16.192 0.0960086 16.298 0.216009 16.301H1.30601C1.43601 16.301 1.54301 16.194 1.54301 16.061L1.54701 14.403H2.57001C3.42701 14.403 4.02301 13.798 4.02301 12.922V11.384C4.02301 10.507 3.42701 9.90001 2.57001 9.90001H0.232009ZM9.26401 9.90001C9.23262 9.90028 9.20159 9.90672 9.1727 9.91897C9.1438 9.93122 9.1176 9.94905 9.09559 9.97143C9.07359 9.99381 9.0562 10.0203 9.04443 10.0494C9.03267 10.0785 9.02674 10.1096 9.02701 10.141V12.611C9.02701 13.551 9.68401 14.219 10.606 14.219H11.281C11.281 14.219 11.297 14.219 11.318 14.223C11.3796 14.2306 11.4363 14.2606 11.4772 14.3072C11.5181 14.3539 11.5405 14.414 11.54 14.476C11.54 14.606 11.444 14.711 11.321 14.727L11.303 14.731L11 14.737H9.73901C9.67597 14.7378 9.6158 14.7635 9.57159 14.8084C9.52739 14.8534 9.50274 14.914 9.50301 14.977V16.067C9.50247 16.1303 9.52697 16.1913 9.57118 16.2366C9.61538 16.2819 9.6757 16.308 9.73901 16.309H11.489C12.409 16.309 13.066 15.64 13.066 14.701V10.141C13.0663 10.078 13.0416 10.0174 12.9974 9.97242C12.9532 9.92747 12.893 9.90181 12.83 9.90102H11.76C11.697 9.90181 11.6368 9.92747 11.5926 9.97242C11.5484 10.0174 11.5237 10.078 11.524 10.141C11.519 10.928 11.524 11.666 11.524 12.396C11.5232 12.4621 11.4966 12.5252 11.4499 12.5719C11.4032 12.6186 11.3401 12.6452 11.274 12.646H10.825C10.7581 12.6452 10.6942 12.6179 10.6473 12.5702C10.6005 12.5224 10.5745 12.4579 10.575 12.391C10.58 11.637 10.57 10.891 10.57 10.141C10.5703 10.078 10.5456 10.0174 10.5014 9.97242C10.4572 9.92747 10.397 9.90181 10.334 9.90102L9.26401 9.90001ZM5.26001 9.90602C5.22954 9.90522 5.19921 9.91043 5.17076 9.92136C5.1423 9.93229 5.11628 9.94871 5.09418 9.9697C5.07208 9.99069 5.05433 10.0158 5.04194 10.0437C5.02956 10.0715 5.02279 10.1015 5.02201 10.132V11.155C5.02201 11.287 5.13501 11.395 5.27401 11.395H6.68701C6.79901 11.412 6.88701 11.495 6.90001 11.625V11.765C6.88701 11.889 6.80001 11.979 6.69301 11.989H5.99301C5.06301 11.989 4.39901 12.619 4.39901 13.504V14.773C4.39901 15.653 4.96901 16.279 5.89401 16.279H7.83401C8.18201 16.279 8.46401 16.009 8.46401 15.679V11.543C8.46401 10.539 7.95601 9.90602 6.74401 9.90602H5.26001ZM1.54701 11.478H2.22501C2.36401 11.478 2.47501 11.593 2.47501 11.734V12.57C2.4754 12.6032 2.46925 12.6362 2.4569 12.6671C2.44455 12.6979 2.42625 12.726 2.40303 12.7498C2.37982 12.7736 2.35215 12.7925 2.3216 12.8056C2.29106 12.8187 2.25823 12.8256 2.22501 12.826H2.12501C1.93301 12.828 1.73901 12.826 1.54701 12.826V11.478ZM6.21701 13.455H6.66201C6.80101 13.455 6.91401 13.563 6.91401 13.695V14.627C6.91366 14.653 6.90893 14.6787 6.90001 14.703C6.8822 14.7516 6.84974 14.7935 6.80711 14.8229C6.76448 14.8523 6.71378 14.8677 6.66201 14.867H6.21701C6.15183 14.8684 6.08877 14.8439 6.04157 14.7989C5.99436 14.754 5.96684 14.6922 5.96501 14.627V13.694C5.96501 13.562 6.07801 13.455 6.21701 13.455Z" fill="black"/>
</g>
<defs>
<clipPath id="clip0_4551_29243">
<rect width="24" height="24" fill="white" transform="translate(0 0.5)"/>
</clipPath>
</defs>
</svg>
