<svg width="24" height="25" viewBox="0 0 24 25" fill="none" xmlns="http://www.w3.org/2000/svg">
<g clipPath="url(#clip0_925_9432)">
<path d="M10.2059 10.4409H13.1549V15.1329C12.7529 15.3339 12.2169 15.4009 11.8149 15.4009C10.7429 15.4009 10.2059 14.8649 10.2059 13.6579V10.4409ZM23.6759 15.2569C22.1529 21.7059 15.6909 25.6989 9.24293 24.1759C2.79393 22.6539 -1.19907 16.1909 0.323934 9.74293C1.84693 3.29393 8.30893 -0.699066 14.7569 0.823934C21.2059 2.34693 25.1989 8.80893 23.6759 15.2569ZM17.4449 9.36893C17.4408 9.13922 17.3477 8.92005 17.1853 8.75759C17.0228 8.59513 16.8037 8.50204 16.5739 8.49793H14.9649L11.2789 4.27593C10.9439 3.87393 10.4079 3.73993 9.87193 3.87393L8.59793 4.27493C8.39693 4.34193 8.32993 4.60993 8.46393 4.74393L12.4849 8.56393H6.38593C6.18493 8.56393 6.05093 8.69793 6.05093 8.89893V9.56893C6.05093 10.0379 6.45293 10.4399 6.92193 10.4399H7.85993V13.6569C7.85993 16.0699 9.13293 17.4769 11.2779 17.4769C11.9479 17.4769 12.4839 17.4099 13.1549 17.1419V19.2869C13.1549 19.8899 13.6239 20.3589 14.2269 20.3589H15.1649C15.2692 20.3519 15.3675 20.3073 15.4414 20.2334C15.5153 20.1595 15.5599 20.0612 15.5669 19.9569V10.3739H17.1089C17.3099 10.3739 17.4439 10.2399 17.4439 10.0389L17.4449 9.36893Z" fill="black"/>
</g>
<defs>
<clipPath id="clip0_925_9432">
<rect width="24" height="24" fill="white" transform="translate(0 0.5)"/>
</clipPath>
</defs>
</svg>
