<svg width="99" height="25" viewBox="0 0 99 25" fill="none" xmlns="http://www.w3.org/2000/svg">
<path d="M19.815 21.1737C19.7036 21.1985 19.5555 21.2293 19.3701 21.2664C19.1849 21.3036 18.9749 21.3219 18.7401 21.3219C18.3077 21.3219 17.9866 21.2416 17.7765 21.0811C17.5665 20.9205 17.4616 20.6362 17.4616 20.2287V14.3545C17.4616 14.0333 17.5357 13.7615 17.6839 13.5392C17.8322 13.3169 18.0483 13.1192 18.3325 12.9463C18.7155 12.7115 19.1849 12.52 19.7407 12.3717C20.3091 12.2236 20.9205 12.1494 21.5752 12.1494C22.7488 12.1494 23.3356 12.5138 23.3356 13.2427C23.3359 13.4137 23.3045 13.5834 23.2429 13.743C23.1936 13.8914 23.1379 14.0147 23.0762 14.1136C22.7921 14.0519 22.4401 14.021 22.02 14.021C21.5875 14.021 21.18 14.0704 20.7971 14.1693C20.4141 14.2681 20.0867 14.3916 19.815 14.5399V21.1737ZM25.6605 12.4829C25.7593 12.4583 25.9014 12.4272 26.0866 12.3903C26.2843 12.3532 26.4943 12.3346 26.7166 12.3346C27.1615 12.3346 27.4825 12.4151 27.6804 12.5757C27.8904 12.7363 27.9953 13.0203 27.9953 13.428V21.1737C27.8479 21.2086 27.6997 21.2396 27.5506 21.2664C27.3652 21.3036 27.1615 21.3219 26.9391 21.3219C26.4943 21.3219 26.1669 21.2416 25.9569 21.0811C25.7593 20.9205 25.6605 20.6362 25.6605 20.2287V12.4829ZM25.4751 9.79604C25.4751 9.43775 25.5988 9.13512 25.8457 8.88816C26.1052 8.62872 26.4326 8.499 26.8278 8.499C27.2232 8.499 27.5444 8.62872 27.7915 8.88816C28.0385 9.13512 28.1621 9.43775 28.1621 9.79604C28.1621 10.1666 28.0385 10.4818 27.7915 10.7412C27.5444 10.9882 27.223 11.1118 26.8278 11.1118C26.4326 11.1118 26.1052 10.9882 25.8457 10.7412C25.5988 10.4818 25.4751 10.1666 25.4751 9.79604ZM34.624 19.6912C34.9823 19.6912 35.3097 19.6604 35.6061 19.5985C35.9027 19.5244 36.1189 19.438 36.2547 19.3392V17.2824L34.4574 17.449C33.9631 17.4985 33.5864 17.6096 33.327 17.7827C33.0676 17.9433 32.9378 18.2027 32.9378 18.5609C32.9378 18.9192 33.0676 19.1972 33.327 19.3949C33.5988 19.5924 34.0309 19.6912 34.624 19.6912ZM34.55 12.1494C35.7606 12.1494 36.7242 12.4088 37.4408 12.9277C38.1695 13.4466 38.5339 14.2496 38.5339 15.3366V19.6172C38.5339 19.9136 38.4598 20.1484 38.3117 20.3213C38.1633 20.4942 37.978 20.6485 37.7557 20.7845C37.4099 20.9945 36.9713 21.1613 36.44 21.2848C35.9089 21.4085 35.3035 21.4702 34.624 21.4702C33.3887 21.4702 32.4129 21.2354 31.6963 20.7659C30.9922 20.2842 30.6401 19.5678 30.6401 18.6165C30.6401 17.7888 30.8996 17.1587 31.4183 16.7264C31.9497 16.2817 32.7155 16.01 33.7162 15.9111L36.2549 15.6517V15.3182C36.2549 14.8487 36.0818 14.5028 35.7359 14.2804C35.4024 14.0581 34.9268 13.9469 34.3091 13.9469C33.8273 13.9469 33.3579 14.0087 32.9007 14.1321C32.4436 14.2435 32.036 14.3853 31.6777 14.5584C31.5419 14.4596 31.4245 14.3298 31.3257 14.1693C31.2393 13.9967 31.1949 13.8062 31.196 13.6133C31.196 13.3663 31.2516 13.1686 31.3628 13.0203C31.4863 12.8597 31.6777 12.7177 31.9372 12.5942C32.2955 12.4458 32.703 12.3348 33.1602 12.2606C33.6173 12.1863 34.0805 12.1494 34.55 12.1494ZM44.0459 21.1737C43.8986 21.2086 43.7503 21.2396 43.6012 21.2664C43.416 21.3036 43.2122 21.3219 42.9897 21.3219C42.5451 21.3219 42.2177 21.2416 42.0076 21.0811C41.8101 20.9205 41.7113 20.6362 41.7113 20.2287V9.1476C41.8101 9.11049 41.9521 9.07962 42.1374 9.05482C42.3351 9.01771 42.5451 8.99916 42.7674 8.99916C43.2122 8.99916 43.5333 9.07962 43.731 9.24021C43.941 9.4008 44.0461 9.68487 44.0461 10.0926L44.0459 21.1737Z" fill="black"/>
<path d="M2.82484 1.29491C1.26465 1.29491 0 2.55973 0 4.11975C0 5.67994 1.26465 6.94459 2.82484 6.94459V1.29491ZM9.11232 18.973C9.11232 20.5332 10.3771 21.7979 11.9372 21.7979C13.4974 21.7979 14.7622 20.5332 14.7622 18.973H9.11232ZM2.82484 6.94459H10.1148V1.29491H2.82484V6.94459ZM9.11232 5.94225V18.973H14.7622V5.94225H9.11232ZM10.1148 6.94459C9.98319 6.94461 9.85283 6.9187 9.7312 6.86834C9.60957 6.81798 9.49906 6.74415 9.40596 6.65107C9.31287 6.55799 9.23902 6.44749 9.18864 6.32587C9.13826 6.20425 9.11232 6.07389 9.11232 5.94225H14.7622C14.7622 3.37567 12.6814 1.29491 10.1148 1.29491V6.94459Z" fill="url(#paint0_linear_4800_81406)"/>
<path d="M14.7468 14.4636C13.9394 9.55513 10.9823 7.36017 9.07617 6.89864V19.1686C9.38588 23.1645 14.7468 22.3443 14.7468 19.1686V14.4636Z" fill="url(#paint1_linear_4800_81406)"/>
<circle cx="20" cy="4.34229" r="4" fill="url(#paint2_linear_4800_81406)"/>
<path d="M19.9779 5.90039L19.7502 5.69307C18.9416 4.95962 18.4074 4.47431 18.4074 3.88221C18.4074 3.3969 18.7875 3.01837 19.2711 3.01837C19.5444 3.01837 19.8068 3.14556 19.9779 3.34511C20.1491 3.14556 20.4114 3.01837 20.6847 3.01837C21.1685 3.01837 21.5485 3.3969 21.5485 3.88205C21.5485 4.47431 21.0146 4.95962 20.2058 5.69307L19.9779 5.90039Z" fill="white"/>
<path d="M54.0823 18.709C54.0823 19.5738 53.7611 20.2531 53.1187 20.7474C52.4764 21.2292 51.5374 21.47 50.3021 21.47C49.7956 21.47 49.3324 21.4329 48.9123 21.3587C48.5046 21.2847 48.1465 21.1797 47.8376 21.0438C47.5411 20.8955 47.3063 20.7226 47.1335 20.5249C46.9729 20.315 46.8926 20.0863 46.8926 19.8393C46.8926 19.6047 46.9419 19.4008 47.0407 19.2279C47.1503 19.0565 47.2957 18.9111 47.467 18.8016C47.8128 19.0241 48.2082 19.2216 48.6529 19.3947C49.11 19.5676 49.635 19.6541 50.2281 19.6541C50.7345 19.6541 51.1174 19.5738 51.3769 19.4131C51.6363 19.2402 51.766 19.0055 51.766 18.709C51.766 18.2026 51.3954 17.8689 50.6544 17.7083L49.6163 17.4674C48.7021 17.2574 48.0227 16.9425 47.578 16.5224C47.1457 16.1024 46.9294 15.5403 46.9294 14.8362C46.9294 14.0333 47.2506 13.3847 47.893 12.8904C48.5355 12.384 49.4373 12.1307 50.5985 12.1307C51.0432 12.1307 51.4509 12.1678 51.8215 12.242C52.2044 12.3037 52.5317 12.4026 52.8036 12.5384C53.0877 12.6619 53.3039 12.8164 53.452 13.0016C53.6126 13.1747 53.6929 13.3784 53.6929 13.6131C53.6929 13.8356 53.6437 14.0331 53.5448 14.2062C53.446 14.3668 53.3286 14.4963 53.1928 14.5952C53.0814 14.5211 52.9333 14.4471 52.7479 14.3729C52.575 14.2986 52.3773 14.2308 52.155 14.1691C51.945 14.1073 51.7164 14.0578 51.4693 14.0208C51.2347 13.9714 51 13.9466 50.7652 13.9466C50.2834 13.9466 49.9066 14.0271 49.635 14.1876C49.3631 14.3359 49.2273 14.552 49.2273 14.8362C49.2273 15.0463 49.3013 15.2192 49.4496 15.355C49.6102 15.4909 49.8819 15.6021 50.2649 15.6886L51.1729 15.911C52.1982 16.1456 52.9394 16.4916 53.3966 16.9486C53.8537 17.3934 54.0823 17.9801 54.0823 18.709ZM59.0803 21.1735C58.9693 21.1983 58.821 21.2292 58.6356 21.2663C58.4504 21.3034 58.2404 21.3218 58.0056 21.3218C57.5732 21.3218 57.2521 21.2415 57.0421 21.0809C56.832 20.9203 56.7271 20.6362 56.7271 20.2285V9.14743C56.826 9.11032 56.968 9.07945 57.1532 9.05465C57.3509 9.01754 57.5672 8.99899 57.8018 8.99899C58.2342 8.99899 58.5553 9.07945 58.7654 9.24004C58.9754 9.40063 59.0805 9.6847 59.0805 10.0924V12.6497C59.3521 12.5138 59.6611 12.3964 60.0069 12.2975C60.3652 12.1986 60.7606 12.1492 61.1928 12.1492C62.3171 12.1492 63.2126 12.4395 63.8798 13.0202C64.547 13.6008 64.8805 14.478 64.8805 15.6515V21.1735C64.733 21.2085 64.5847 21.2394 64.4356 21.2663C64.2504 21.3034 64.0466 21.3218 63.8241 21.3218C63.3795 21.3218 63.052 21.2415 62.842 21.0809C62.632 20.9203 62.5271 20.6362 62.5271 20.2285V15.7625C62.5271 15.1448 62.3665 14.7001 62.0453 14.4282C61.7241 14.1441 61.3041 14.0021 60.7852 14.0021C60.4517 14.0021 60.1429 14.0578 59.8586 14.1689C59.5859 14.2623 59.3248 14.3867 59.0805 14.5395V21.1733L59.0803 21.1735ZM76.6348 16.8004C76.6348 17.5169 76.5238 18.1655 76.3013 18.7461C76.0912 19.3144 75.7886 19.8022 75.3934 20.21C74.998 20.6177 74.5225 20.9326 73.9665 21.1549C73.4106 21.365 72.7867 21.47 72.0949 21.47C71.4033 21.47 70.7793 21.365 70.2235 21.1549C69.6675 20.9326 69.1919 20.6237 68.7965 20.2285C68.4013 19.8208 68.0924 19.3328 67.8701 18.7646C67.6601 18.184 67.555 17.5292 67.555 16.8004C67.555 16.0839 67.6601 15.4415 67.8701 14.8732C68.0924 14.2926 68.4013 13.8047 68.7965 13.4093C69.2042 13.0016 69.686 12.6929 70.2418 12.4829C70.7978 12.2604 71.4156 12.1492 72.0949 12.1492C72.7743 12.1492 73.3921 12.2606 73.9479 12.4829C74.5039 12.6929 74.9794 13.0016 75.3748 13.4093C75.7826 13.817 76.0912 14.3111 76.3013 14.8917C76.5238 15.4601 76.6348 16.0962 76.6348 16.8004ZM72.0949 14.0023C71.4279 14.0023 70.9028 14.2494 70.5198 14.7435C70.1369 15.2252 69.9455 15.9108 69.9455 16.8004C69.9455 17.7022 70.1307 18.394 70.5013 18.8758C70.8842 19.3576 71.4156 19.5985 72.0949 19.5985C72.7743 19.5985 73.2993 19.3576 73.6701 18.8758C74.053 18.3815 74.2445 17.6899 74.2445 16.8004C74.2445 15.911 74.053 15.2252 73.6701 14.7435C73.2872 14.2494 72.762 14.0023 72.0949 14.0023ZM83.4599 21.4515C83.1016 21.4515 82.7681 21.4144 82.4592 21.3402C82.1626 21.2786 81.8909 21.1983 81.6438 21.0994V24.509C81.5326 24.5337 81.3845 24.5646 81.1991 24.6017C81.0139 24.6388 80.8039 24.6572 80.5691 24.6572C80.1367 24.6572 79.8155 24.5769 79.6055 24.4163C79.3955 24.2558 79.2906 23.9717 79.2906 23.564V14.1691C79.2906 13.8725 79.3462 13.6316 79.4572 13.4464C79.5809 13.261 79.7723 13.0881 80.0318 12.9275C80.3899 12.7175 80.8347 12.5384 81.3659 12.3901C81.8971 12.2295 82.4961 12.1492 83.1633 12.1492C83.8428 12.1492 84.4666 12.242 85.0349 12.4272C85.6155 12.6001 86.1158 12.8781 86.5359 13.261C86.9559 13.6316 87.2831 14.1073 87.518 14.688C87.7526 15.2686 87.87 15.9604 87.87 16.7633C87.87 17.5417 87.7589 18.221 87.5365 18.8016C87.3142 19.3822 87.0052 19.8702 86.6099 20.2656C86.227 20.6609 85.7638 20.9572 85.2203 21.1549C84.6889 21.3526 84.1022 21.4515 83.4599 21.4515ZM83.1078 19.5799C83.849 19.5799 84.4296 19.3513 84.8497 18.8944C85.2697 18.4372 85.4795 17.727 85.4795 16.7633C85.4795 15.7627 85.2635 15.0523 84.8311 14.6323C84.3988 14.2123 83.8428 14.0023 83.1633 14.0023C82.8298 14.0023 82.5332 14.0456 82.2738 14.1321C82.0268 14.2185 81.8106 14.3111 81.6254 14.41V19.1722C81.8281 19.2981 82.046 19.3977 82.2738 19.4687C82.5209 19.543 82.7989 19.5799 83.1078 19.5799Z" fill="url(#paint3_linear_4800_81406)"/>
<path d="M91.5693 16.4129C91.977 17.463 92.3291 18.297 92.6256 18.9145C92.7491 19.1863 92.8663 19.4088 92.9777 19.5817C93.1011 19.7548 93.2123 19.8966 93.3112 20.0078C93.4223 20.119 93.5274 20.2055 93.6263 20.2672C93.7374 20.3167 93.8484 20.3599 93.9598 20.397C93.8015 20.6719 93.6283 20.9379 93.4409 21.1938C93.2416 21.4677 93.0314 21.7335 92.8108 21.9906C92.5978 22.2399 92.3753 22.4809 92.1438 22.7132C91.9434 22.9267 91.7332 23.1307 91.5138 23.3247C91.5755 23.6707 91.7238 23.9547 91.9585 24.1772C92.2056 24.4119 92.5268 24.5293 92.922 24.5293C93.4286 24.5293 93.9412 24.2451 94.4601 23.6769C94.9913 23.1209 95.578 22.2748 96.2205 21.1382C96.554 20.5452 96.8875 19.8597 97.221 19.0812C97.5457 18.314 97.8423 17.5353 98.1105 16.7466C98.3822 15.9682 98.5985 15.2456 98.7591 14.5784C98.9197 13.8991 99 13.374 99 13.0034C99 12.6699 98.8826 12.429 98.6479 12.2807C98.4131 12.1325 98.1353 12.0582 97.8141 12.0582C97.6287 12.0582 97.4496 12.083 97.2767 12.1325C97.1174 12.1814 96.9625 12.2434 96.8134 12.3178C96.6973 12.883 96.5675 13.4452 96.4243 14.004C96.2768 14.5821 96.1161 15.1566 95.9425 15.7274C95.788 16.2766 95.6149 16.8204 95.4236 17.3579C95.2692 17.8256 95.1025 18.289 94.9235 18.7479H94.8493C94.108 16.8329 93.4471 14.943 92.8665 13.0774C92.7428 12.6945 92.5762 12.429 92.3662 12.2807C92.1685 12.1326 91.909 12.0584 91.5878 12.0584C91.3284 12.0584 91.0875 12.1139 90.8652 12.2251C90.6429 12.3241 90.4698 12.4476 90.3463 12.5957C90.754 14.0906 91.1617 15.363 91.5693 16.4129Z" fill="url(#paint4_linear_4800_81406)"/>
<defs>
<linearGradient id="paint0_linear_4800_81406" x1="7.38108" y1="21.7979" x2="7.3942" y2="1.29779" gradientUnits="userSpaceOnUse">
<stop stop-color="#EB8105"/>
<stop offset="1" stop-color="#FAAC06"/>
</linearGradient>
<linearGradient id="paint1_linear_4800_81406" x1="11.9115" y1="21.8667" x2="11.9297" y2="6.90075" gradientUnits="userSpaceOnUse">
<stop stop-color="#EB8105"/>
<stop offset="1" stop-color="#FAAC06"/>
</linearGradient>
<linearGradient id="paint2_linear_4800_81406" x1="20" y1="0.342285" x2="20.0037" y2="8.34116" gradientUnits="userSpaceOnUse">
<stop stop-color="#EB8105"/>
<stop offset="1" stop-color="#FAAC06"/>
</linearGradient>
<linearGradient id="paint3_linear_4800_81406" x1="67.3813" y1="24.6572" x2="67.3841" y2="9.00118" gradientUnits="userSpaceOnUse">
<stop stop-color="#EB8105"/>
<stop offset="1" stop-color="#FAAC06"/>
</linearGradient>
<linearGradient id="paint4_linear_4800_81406" x1="94.6731" y1="24.5293" x2="94.6814" y2="12.06" gradientUnits="userSpaceOnUse">
<stop stop-color="#EB8105"/>
<stop offset="1" stop-color="#FAAC06"/>
</linearGradient>
</defs>
</svg>
