<svg width="231" height="44" viewBox="0 0 231 44" fill="none" xmlns="http://www.w3.org/2000/svg">
<rect width="43.51" height="43.51" rx="17.404" transform="matrix(1 0 0 -1 0 43.9031)" fill="black"/>
<rect width="43.51" height="43.51" rx="8" transform="matrix(1 0 0 -1 0 43.9031)" fill="black"/>
<path d="M10.4415 8.60823C8.36823 8.60823 6.6875 10.289 6.6875 12.3625C6.6875 14.4356 8.36823 16.1163 10.4415 16.1163V8.60823ZM18.7972 32.1012C18.7972 34.1747 20.4779 35.8555 22.5515 35.8555C24.6246 35.8555 26.3053 34.1747 26.3053 32.1012H18.7972ZM10.4415 16.1163H20.1294V8.60823H10.4415V16.1163ZM18.7972 14.7844V32.1012H26.3053V14.7844H18.7972ZM20.1294 16.1163C19.7761 16.1163 19.4373 15.976 19.1875 15.7262C18.9377 15.4765 18.7973 15.1377 18.7972 14.7844H26.3053C26.3053 11.3732 23.5403 8.60848 20.1294 8.60848V16.1163Z" fill="url(#paint0_linear_4142_81418)"/>
<path d="M26.2859 26.1088C25.2126 19.5862 21.283 16.6688 18.75 16.0559V32.3615C19.1615 37.6717 26.2859 36.5818 26.2859 32.3615V26.1088Z" fill="url(#paint1_linear_4142_81418)"/>
<circle cx="8" cy="8" r="8" transform="matrix(1 0 0 -1 29 16.1965)" fill="url(#paint2_linear_4142_81418)"/>
<path d="M37 12.1965L36.4201 11.6686C34.3599 9.80082 33 8.56437 33 7.05633C33 5.82083 33.9682 4.85645 35.1999 4.85645C35.8955 4.85645 36.564 5.18045 37 5.68885C37.2236 5.4301 37.4999 5.22202 37.8103 5.07848C38.1207 4.93494 38.4581 4.85925 38.8001 4.85645C40.0318 4.85645 41 5.82083 41 7.05681C41 8.56437 39.6397 9.80034 37.5799 11.6686L37 12.1965Z" fill="black"/>
<path d="M66.473 15.8877C66.5642 16.0337 66.646 16.2338 66.7191 16.4887C66.8099 16.7253 66.8554 16.9894 66.8554 17.2808C66.8554 17.7723 66.737 18.1458 66.5003 18.4006C66.2818 18.6555 65.9723 18.783 65.5717 18.783H61.8028V32.4389C61.6571 32.4752 61.4296 32.521 61.12 32.5754C60.8044 32.6306 60.4845 32.6581 60.164 32.6575C59.4721 32.6575 58.9806 32.5299 58.6892 32.2751C58.3978 32.02 58.2523 31.5921 58.2523 30.9914V18.783H53.6639C53.5729 18.6189 53.4816 18.4188 53.3906 18.1821C53.3178 17.9454 53.2812 17.6813 53.2812 17.3899C53.2812 16.8802 53.3906 16.5071 53.6092 16.2704C53.8459 16.0153 54.1646 15.888 54.5652 15.888L66.473 15.8877ZM74.2036 32.4389C73.9678 32.4893 73.731 32.5348 73.4933 32.5754C73.2019 32.6301 72.8834 32.6575 72.5373 32.6575C71.8456 32.6575 71.3538 32.5299 71.0624 32.2751C70.7894 32.02 70.6529 31.5921 70.6529 30.9914V17.2808C70.6529 16.9349 70.7439 16.6709 70.9259 16.4887C71.1082 16.3067 71.363 16.161 71.6907 16.0518C72.2735 15.8514 72.9562 15.7149 73.7392 15.6421C74.5553 15.5501 75.3759 15.5045 76.1971 15.5053C78.6006 15.5053 80.4032 16.0063 81.6048 17.0078C82.8067 17.9909 83.4074 19.3566 83.4074 21.1044C83.4074 22.2516 83.107 23.2531 82.5063 24.1089C81.9054 24.9463 81.0767 25.5927 80.0208 26.0479C80.7864 27.0396 81.5512 28.032 82.3151 29.025C83.0615 29.9534 83.617 30.6819 83.9809 31.21C83.8355 31.6834 83.5807 32.0565 83.2164 32.3295C82.8522 32.5846 82.4516 32.7119 82.0145 32.7119C81.4502 32.7119 81.0133 32.5846 80.7038 32.3295C80.4124 32.0747 80.121 31.7289 79.8296 31.2918L76.7434 26.676H74.2034L74.2036 32.4389ZM76.3883 23.8903C77.4263 23.8903 78.2548 23.6626 78.8739 23.2073C79.5111 22.7524 79.8296 22.0604 79.8296 21.1318C79.8296 19.2927 78.6006 18.3733 76.1424 18.3733C75.7784 18.3733 75.4234 18.3914 75.0773 18.428C74.7676 18.4623 74.4581 18.4988 74.1489 18.5374V23.8903H76.3883ZM90.007 32.6575C89.315 32.6575 88.8235 32.5299 88.5321 32.2751C88.2407 32.02 88.0953 31.5921 88.0953 30.9914V15.888C88.2591 15.8514 88.4955 15.8059 88.8053 15.7512C89.1149 15.6965 89.4244 15.6692 89.734 15.6692C90.3894 15.6692 90.8719 15.7878 91.1815 16.0245C91.491 16.2612 91.6457 16.6982 91.6457 17.3355V32.4389C91.4099 32.4893 91.1732 32.5348 90.9356 32.5754C90.6292 32.6314 90.3184 32.6589 90.007 32.6575ZM106.208 28.5606H100.09C99.8897 29.2344 99.6712 29.9355 99.4345 30.6637C99.2159 31.392 99.0339 31.9929 98.8882 32.4663C98.6925 32.5435 98.4917 32.6074 98.2873 32.6575C98.0872 32.7122 97.8323 32.7395 97.5228 32.7395C96.9037 32.7395 96.4211 32.6209 96.075 32.3842C95.7294 32.1294 95.5561 31.7744 95.5561 31.3191C95.5561 31.1006 95.5835 30.8912 95.6382 30.6908L95.884 29.9534C96.0295 29.4437 96.2207 28.8338 96.4574 28.1235C96.7298 27.3434 96.9939 26.5604 97.2495 25.7747C97.5486 24.8971 97.8582 24.0231 98.1782 23.1529C98.5058 22.2424 98.8154 21.3685 99.1068 20.5309C99.3935 19.7371 99.6848 18.9451 99.9807 18.1547C100.229 17.5185 100.475 16.8812 100.718 16.2428C100.955 16.1155 101.301 15.9879 101.756 15.8606C102.219 15.7345 102.696 15.6701 103.176 15.6692C103.814 15.6692 104.396 15.7696 104.924 15.97C105.452 16.152 105.789 16.4524 105.935 16.871C106.351 18.0219 106.751 19.1782 107.136 20.3397C107.587 21.6735 108.024 23.0119 108.448 24.3545C108.893 25.7083 109.33 27.0648 109.758 28.4241C110.134 29.6159 110.507 30.8085 110.878 32.0019C110.696 32.2022 110.441 32.3661 110.113 32.4934C109.804 32.6391 109.431 32.7122 108.994 32.7122C108.356 32.7122 107.901 32.6028 107.628 32.3842C107.373 32.1475 107.173 31.7833 107.027 31.2918L106.208 28.5606ZM103.149 18.783C102.985 19.238 102.803 19.7479 102.603 20.3123C102.421 20.8767 102.22 21.4684 102.002 22.0875C101.795 22.7075 101.586 23.3266 101.374 23.9448C101.159 24.5529 100.949 25.1629 100.745 25.7747H105.498L103.285 18.783H103.149ZM116.596 32.521C116.013 32.521 115.549 32.3479 115.203 32.0019C114.875 31.656 114.711 31.1916 114.711 30.609V15.8877C114.857 15.8514 115.085 15.8059 115.394 15.7512C115.722 15.6965 116.041 15.6692 116.35 15.6692C117.006 15.6692 117.488 15.7878 117.798 16.0245C118.107 16.2612 118.262 16.6982 118.262 17.3355V29.5984H125.281C125.372 29.7441 125.463 29.9444 125.554 30.1993C125.645 30.436 125.691 30.7 125.691 30.9914C125.691 31.483 125.572 31.8654 125.336 32.1383C125.117 32.3934 124.808 32.5207 124.407 32.5207H116.596L116.596 32.521Z" fill="black"/>
<path d="M134.482 29.9809C135.538 29.9809 136.312 29.7805 136.803 29.38C137.295 28.961 137.541 28.4421 137.541 27.8231C137.541 27.2587 137.349 26.8126 136.967 26.4849C136.585 26.1388 136.002 25.8477 135.219 25.611L133.471 25.0648C132.779 24.846 132.151 24.6003 131.587 24.3273C131.022 24.0541 130.54 23.7356 130.139 23.3714C129.746 22.9998 129.431 22.5543 129.211 22.0603C128.992 21.5506 128.883 20.9497 128.883 20.2578C128.883 18.7829 129.438 17.6176 130.549 16.7621C131.66 15.8879 133.18 15.4508 135.11 15.4508C135.875 15.4508 136.576 15.5147 137.213 15.6422C137.869 15.7514 138.433 15.9152 138.906 16.1338C139.38 16.3339 139.744 16.5888 139.999 16.8983C140.272 17.2078 140.409 17.5539 140.409 17.9363C140.409 18.3003 140.317 18.6191 140.135 18.8921C139.974 19.1445 139.76 19.3589 139.507 19.5203C139.07 19.2108 138.488 18.9468 137.759 18.7282C137.049 18.4915 136.266 18.3732 135.41 18.3732C134.464 18.3732 133.745 18.5462 133.253 18.8921C132.761 19.22 132.515 19.6752 132.515 20.2578C132.515 20.7312 132.679 21.0954 133.007 21.3503C133.353 21.6051 133.89 21.851 134.618 22.0877L136.175 22.5792C137.759 23.0526 138.988 23.699 139.862 24.5185C140.736 25.3378 141.173 26.4484 141.173 27.8504C141.173 28.597 141.028 29.28 140.736 29.8989C140.445 30.5179 140.017 31.055 139.453 31.5102C138.906 31.9473 138.214 32.2842 137.377 32.5209C136.557 32.7757 135.62 32.9033 134.564 32.9033C133.726 32.9033 132.952 32.8304 132.242 32.6845C131.55 32.539 130.949 32.3479 130.439 32.1112C129.93 31.8563 129.529 31.5649 129.238 31.2372C128.965 30.8911 128.828 30.5179 128.828 30.1174C128.828 29.6985 128.946 29.3434 129.183 29.0523C129.438 28.7427 129.729 28.5152 130.057 28.3693C130.512 28.7701 131.113 29.1433 131.86 29.4891C132.606 29.8168 133.48 29.9809 134.482 29.9809ZM148.96 32.4389C148.796 32.4754 148.56 32.5209 148.25 32.5756C147.959 32.63 147.64 32.6574 147.294 32.6574C146.602 32.6574 146.111 32.5298 145.819 32.275C145.546 32.0202 145.409 31.5923 145.409 30.9913V15.8879C145.555 15.8513 145.783 15.8058 146.092 15.7511C146.42 15.6967 146.739 15.6693 147.048 15.6693C147.704 15.6693 148.186 15.7877 148.496 16.0244C148.805 16.2611 148.96 16.6982 148.96 17.3354V22.7157H155.788V15.8879C155.934 15.8513 156.161 15.8058 156.471 15.7511C156.799 15.6967 157.117 15.6693 157.427 15.6693C158.082 15.6693 158.565 15.7969 158.874 16.0517C159.184 16.2884 159.339 16.7255 159.339 17.3627V32.4389C159.175 32.4754 158.938 32.5209 158.629 32.5756C158.337 32.63 158.018 32.6574 157.673 32.6574C156.981 32.6574 156.489 32.5298 156.198 32.275C155.924 32.0202 155.788 31.5923 155.788 30.9913V25.5563H148.96V32.4389ZM180.316 24.1635C180.316 25.5837 180.107 26.84 179.688 27.9325C179.269 29.0249 178.687 29.9444 177.94 30.691C177.212 31.4192 176.338 31.9747 175.318 32.3568C174.299 32.721 173.197 32.9033 172.014 32.9033C170.83 32.9033 169.729 32.721 168.709 32.3571C167.689 31.9747 166.806 31.4192 166.06 30.691C165.331 29.9444 164.758 29.0249 164.339 27.9325C163.92 26.84 163.711 25.5837 163.711 24.1632C163.711 22.7431 163.92 21.4959 164.339 20.4216C164.776 19.3291 165.368 18.4187 166.114 17.6904C166.861 16.9438 167.735 16.3886 168.736 16.0246C169.756 15.642 170.848 15.4508 172.014 15.4508C173.179 15.4508 174.262 15.6422 175.264 16.0244C176.283 16.3886 177.167 16.9438 177.913 17.6904C178.66 18.4189 179.242 19.3291 179.661 20.4216C180.098 21.4957 180.316 22.7431 180.316 24.1635ZM176.684 24.1635C176.684 22.2697 176.256 20.8314 175.4 19.848C174.563 18.8466 173.434 18.3458 172.014 18.3458C170.611 18.3458 169.483 18.8376 168.627 19.8207C167.789 20.804 167.371 22.2515 167.371 24.1635C167.371 26.0752 167.789 27.5227 168.627 28.506C169.465 29.4891 170.594 29.9809 172.014 29.9809C173.434 29.9809 174.563 29.4891 175.4 28.506C176.256 27.5227 176.684 26.0752 176.684 24.1635ZM188.272 26.9491V32.4389C188.108 32.4754 187.872 32.5209 187.562 32.5756C187.271 32.63 186.952 32.6574 186.606 32.6574C185.914 32.6574 185.423 32.5298 185.131 32.275C184.858 32.0202 184.722 31.5923 184.722 30.9913V17.2807C184.722 16.9349 184.813 16.6708 184.995 16.4888C185.177 16.3066 185.432 16.1609 185.759 16.0517C186.051 15.9607 186.369 15.8787 186.715 15.8058C187.079 15.733 187.453 15.6785 187.835 15.642C188.217 15.5873 188.6 15.551 188.982 15.5326C189.346 15.5149 189.71 15.5059 190.075 15.5055C192.478 15.5055 194.281 16.0244 195.482 17.0624C196.702 18.0818 197.312 19.4656 197.312 21.2138C197.312 22.9616 196.72 24.3544 195.537 25.3925C194.354 26.4302 192.642 26.9491 190.402 26.9491H188.272ZM190.184 24.1088C191.276 24.1088 192.132 23.8721 192.751 23.3987C193.389 22.9253 193.707 22.1968 193.707 21.2138C193.707 20.267 193.407 19.5566 192.806 19.0833C192.223 18.6099 191.367 18.3732 190.238 18.3732C189.456 18.3732 188.791 18.4279 188.245 18.5373V24.1088H190.184ZM205.048 26.9491V32.4389C204.883 32.4754 204.647 32.5209 204.337 32.5756C204.046 32.63 203.728 32.6574 203.381 32.6574C202.69 32.6574 202.198 32.5298 201.907 32.275C201.634 32.0202 201.497 31.5923 201.497 30.9913V17.2807C201.497 16.9349 201.588 16.6708 201.77 16.4888C201.952 16.3066 202.207 16.1609 202.535 16.0517C202.826 15.9607 203.145 15.8787 203.491 15.8058C203.855 15.733 204.228 15.6785 204.61 15.642C204.993 15.5873 205.375 15.551 205.758 15.5326C206.121 15.5149 206.486 15.5059 206.85 15.5055C209.254 15.5055 211.056 16.0244 212.258 17.0624C213.478 18.0818 214.088 19.4656 214.088 21.2138C214.088 22.9616 213.496 24.3544 212.312 25.3925C211.129 26.4302 209.417 26.9491 207.178 26.9491H205.048ZM206.959 24.1088C208.052 24.1088 208.907 23.8721 209.527 23.3987C210.164 22.9253 210.483 22.1968 210.483 21.2138C210.483 20.267 210.182 19.5566 209.581 19.0833C208.999 18.6099 208.143 18.3732 207.014 18.3732C206.231 18.3732 205.566 18.4279 205.02 18.5373V24.1088H206.959ZM231 17.2533C231 17.4537 230.9 17.7904 230.699 18.264C230.499 18.719 230.19 19.3291 229.771 20.0939C229.352 20.8587 228.815 21.7871 228.16 22.8798C227.504 23.9723 226.712 25.2376 225.783 26.6761V32.4389C225.637 32.4754 225.41 32.5209 225.1 32.5756C224.794 32.6315 224.483 32.6589 224.172 32.6574C223.48 32.6574 222.997 32.5298 222.724 32.275C222.451 32.0202 222.315 31.6012 222.315 31.0187V26.7035C221.781 25.9302 221.262 25.147 220.758 24.3544C220.21 23.4963 219.673 22.6314 219.147 21.76C218.635 20.9155 218.144 20.0595 217.672 19.1927C217.216 18.3369 216.834 17.5629 216.524 16.8712C216.67 16.598 216.898 16.3521 217.207 16.1338C217.517 15.8971 217.908 15.7787 218.382 15.7787C218.91 15.7787 219.329 15.8971 219.638 16.1338C219.966 16.3705 220.285 16.7802 220.594 17.3627C220.74 17.6176 220.967 18.0455 221.277 18.6464C221.622 19.261 221.959 19.8801 222.287 20.5037C222.63 21.1196 222.967 21.7387 223.298 22.3609C223.523 22.763 223.75 23.1635 223.981 23.5626H224.117C224.463 22.8888 224.791 22.2515 225.1 21.6506L226.002 19.848C226.291 19.2507 226.574 18.6498 226.848 18.0455C227.14 17.4264 227.44 16.7892 227.75 16.1335C227.968 16.0062 228.214 15.9152 228.487 15.8605C228.778 15.8058 229.051 15.7785 229.306 15.7785C229.798 15.7785 230.199 15.906 230.508 16.1609C230.836 16.416 231 16.78 231 17.2533Z" fill="url(#paint3_linear_4142_81418)"/>
<defs>
<linearGradient id="paint0_linear_4142_81418" x1="16.4964" y1="35.8555" x2="16.5138" y2="8.61205" gradientUnits="userSpaceOnUse">
<stop stop-color="#EB8105"/>
<stop offset="1" stop-color="#FAAC06"/>
</linearGradient>
<linearGradient id="paint1_linear_4142_81418" x1="22.518" y1="35.9471" x2="22.5421" y2="16.0588" gradientUnits="userSpaceOnUse">
<stop stop-color="#EB8105"/>
<stop offset="1" stop-color="#FAAC06"/>
</linearGradient>
<linearGradient id="paint2_linear_4142_81418" x1="8" y1="4.39075e-10" x2="8.00737" y2="15.9978" gradientUnits="userSpaceOnUse">
<stop stop-color="#EB8105"/>
<stop offset="1" stop-color="#FAAC06"/>
</linearGradient>
<linearGradient id="paint3_linear_4142_81418" x1="179.914" y1="32.9033" x2="179.915" y2="15.4532" gradientUnits="userSpaceOnUse">
<stop stop-color="#EB8105"/>
<stop offset="1" stop-color="#FAAC06"/>
</linearGradient>
</defs>
</svg>
