<svg width="260" height="61" viewBox="0 0 260 61" fill="none" xmlns="http://www.w3.org/2000/svg">
<path d="M89.8297 22.065C89.9563 22.2672 90.0698 22.5449 90.1712 22.8989C90.2972 23.2274 90.3603 23.5938 90.3603 23.9978C90.3603 24.6802 90.1961 25.1981 89.8676 25.5517C89.5644 25.9057 89.1348 26.0824 88.579 26.0824H83.3489V45.0324C83.1467 45.0831 82.831 45.1462 82.4015 45.2221C81.9634 45.2986 81.5195 45.3366 81.0749 45.3356C80.1147 45.3356 79.4326 45.1587 79.0283 44.805C78.6239 44.4514 78.4221 43.8576 78.4221 43.0237V26.0824H72.0548C71.9285 25.855 71.8019 25.5769 71.6756 25.2485C71.5745 24.92 71.5238 24.5539 71.5238 24.1496C71.5238 23.4423 71.6756 22.9241 71.9789 22.5956C72.3073 22.242 72.7496 22.065 73.3055 22.065H89.8297ZM98.395 45.0324C98.1677 45.0831 97.8648 45.1462 97.4856 45.2221C97.1068 45.298 96.6772 45.3356 96.1969 45.3356C95.3127 45.3356 94.6558 45.1714 94.2262 44.843C93.7967 44.5145 93.5821 43.9332 93.5821 43.0996V31.0851C93.5821 30.4282 93.7335 29.8724 94.0368 29.4176C94.3401 28.9629 94.782 28.5585 95.3634 28.2049C96.1466 27.7246 97.1068 27.3331 98.2436 27.0298C99.4059 26.7269 100.657 26.5751 101.996 26.5751C104.396 26.5751 105.596 27.3203 105.596 28.8111C105.597 29.161 105.533 29.508 105.406 29.8344C105.306 30.138 105.192 30.3902 105.066 30.5924C104.485 30.4661 103.765 30.403 102.905 30.403C102.021 30.403 101.187 30.5041 100.404 30.7063C99.6209 30.9085 98.9512 31.161 98.395 31.4643V45.0324ZM110.351 27.2571C110.553 27.2068 110.844 27.1433 111.223 27.0677C111.627 26.9918 112.057 26.9539 112.511 26.9539C113.421 26.9539 114.078 27.1185 114.482 27.4469C114.912 27.7754 115.127 28.3564 115.127 29.1903V45.0324C114.825 45.1039 114.522 45.1672 114.217 45.2221C113.838 45.298 113.421 45.3356 112.966 45.3356C112.057 45.3356 111.387 45.1714 110.957 44.843C110.553 44.5145 110.351 43.9332 110.351 43.0996V27.2571ZM109.972 21.7617C109.972 21.0289 110.225 20.41 110.73 19.9049C111.261 19.3742 111.93 19.1089 112.739 19.1089C113.547 19.1089 114.204 19.3742 114.71 19.9049C115.215 20.41 115.468 21.0289 115.468 21.7617C115.468 22.5197 115.215 23.1642 114.71 23.6949C114.204 24.2 113.547 24.4529 112.739 24.4529C111.93 24.4529 111.261 24.2 110.73 23.6949C110.225 23.1642 109.972 22.5197 109.972 21.7617ZM128.684 42.0004C129.417 42.0004 130.087 41.9372 130.693 41.8106C131.299 41.6592 131.742 41.4825 132.019 41.2803V37.0735L128.343 37.4144C127.332 37.5155 126.562 37.7429 126.031 38.0969C125.501 38.4253 125.235 38.956 125.235 39.6884C125.235 40.4212 125.501 40.9898 126.031 41.3942C126.587 41.7982 127.471 42.0004 128.684 42.0004H128.684ZM128.533 26.5751C131.009 26.5751 132.98 27.1057 134.445 28.167C135.936 29.2282 136.681 30.8705 136.681 33.0938V41.8489C136.681 42.4551 136.529 42.9354 136.226 43.289C135.923 43.6427 135.544 43.9583 135.089 44.2364C134.382 44.666 133.485 45.0072 132.398 45.2597C131.312 45.5126 130.074 45.6389 128.684 45.6389C126.157 45.6389 124.162 45.1587 122.696 44.1985C121.256 43.2131 120.536 41.7478 120.536 39.8023C120.536 38.1093 121.066 36.8207 122.127 35.9364C123.214 35.0269 124.781 34.4711 126.827 34.2689L132.02 33.7383V33.0562C132.02 32.096 131.666 31.3884 130.958 30.9336C130.276 30.4789 129.303 30.2515 128.04 30.2515C127.055 30.2515 126.094 30.3778 125.159 30.6304C124.224 30.8581 123.391 31.1482 122.658 31.5022C122.38 31.3 122.14 31.0347 121.938 30.7063C121.761 30.3534 121.67 29.9638 121.673 29.5691C121.673 29.064 121.786 28.6596 122.014 28.3564C122.266 28.0279 122.658 27.7374 123.189 27.4849C123.921 27.1812 124.755 26.9542 125.69 26.8024C126.625 26.6506 127.572 26.5751 128.533 26.5751ZM147.955 45.0324C147.653 45.1039 147.35 45.1672 147.045 45.2221C146.666 45.298 146.249 45.3356 145.794 45.3356C144.885 45.3356 144.215 45.1714 143.786 44.843C143.382 44.5145 143.18 43.9332 143.18 43.0996V20.4355C143.382 20.3596 143.672 20.2964 144.051 20.2457C144.455 20.1698 144.885 20.1319 145.34 20.1319C146.249 20.1319 146.906 20.2964 147.31 20.6249C147.74 20.9534 147.955 21.5344 147.955 22.3683V45.0324H147.955Z" fill="black"/>
<path d="M168.482 39.9927C168.482 41.7613 167.825 43.151 166.512 44.1619C165.198 45.1473 163.277 45.64 160.751 45.64C159.715 45.64 158.767 45.5641 157.908 45.4122C157.074 45.2608 156.342 45.0462 155.71 44.7681C155.104 44.4648 154.623 44.1112 154.27 43.7068C153.942 43.2773 153.777 42.8098 153.777 42.3047C153.777 41.8248 153.878 41.4076 154.08 41.054C154.304 40.7036 154.602 40.4061 154.952 40.1821C155.66 40.6372 156.468 41.0412 157.378 41.3952C158.313 41.7489 159.386 41.9255 160.599 41.9255C161.635 41.9255 162.418 41.7613 162.949 41.4328C163.48 41.0792 163.745 40.5993 163.745 39.9927C163.745 38.957 162.987 38.2745 161.471 37.9461L159.348 37.4534C157.478 37.0239 156.089 36.3797 155.179 35.5206C154.295 34.6615 153.853 33.5119 153.853 32.0715C153.853 30.4292 154.51 29.103 155.823 28.0921C157.138 27.0563 158.982 26.5381 161.357 26.5381C162.267 26.5381 163.1 26.614 163.858 26.7658C164.642 26.8921 165.311 27.0943 165.867 27.372C166.448 27.6246 166.891 27.9406 167.193 28.3195C167.522 28.6734 167.686 29.0902 167.686 29.5701C167.686 30.0252 167.585 30.4292 167.383 30.7832C167.181 31.1117 166.941 31.3766 166.663 31.5788C166.435 31.4274 166.132 31.2759 165.753 31.1241C165.4 30.9723 164.995 30.8336 164.541 30.7073C164.111 30.581 163.644 30.4796 163.138 30.404C162.658 30.3029 162.178 30.2522 161.698 30.2522C160.713 30.2522 159.942 30.4168 159.386 30.7453C158.83 31.0485 158.552 31.4905 158.552 32.0715C158.552 32.501 158.704 32.8547 159.007 33.1328C159.336 33.4109 159.891 33.6382 160.675 33.8152L162.532 34.2699C164.629 34.7499 166.145 35.4575 167.08 36.3921C168.015 37.3019 168.482 38.5019 168.482 39.9927ZM178.705 45.0334C178.478 45.0841 178.175 45.1473 177.795 45.2232C177.417 45.2991 176.987 45.3367 176.507 45.3367C175.623 45.3367 174.966 45.1725 174.536 44.844C174.107 44.5155 173.892 43.9345 173.892 43.1006V20.4365C174.094 20.3606 174.385 20.2975 174.763 20.2468C175.168 20.1709 175.61 20.1329 176.09 20.1329C176.974 20.1329 177.631 20.2975 178.061 20.6259C178.49 20.9544 178.705 21.5354 178.705 22.3693V27.5997C179.261 27.3217 179.893 27.0815 180.6 26.8794C181.333 26.6772 182.142 26.5761 183.026 26.5761C185.325 26.5761 187.157 27.1699 188.521 28.3574C189.886 29.5449 190.568 31.339 190.568 33.7393V45.0334C190.266 45.105 189.963 45.1682 189.658 45.2232C189.279 45.2991 188.863 45.3367 188.407 45.3367C187.498 45.3367 186.828 45.1725 186.399 44.844C185.969 44.5155 185.755 43.9345 185.755 43.1006V33.9663C185.755 32.7029 185.426 31.7934 184.769 31.2373C184.112 30.6562 183.253 30.3657 182.192 30.3657C181.51 30.3657 180.878 30.4796 180.297 30.707C179.739 30.898 179.205 31.1523 178.705 31.465V45.0331L178.705 45.0334ZM214.609 36.0892C214.609 37.5545 214.382 38.8811 213.927 40.0686C213.497 41.231 212.878 42.2288 212.07 43.0627C211.261 43.8966 210.289 44.5407 209.152 44.9955C208.015 45.425 206.738 45.64 205.324 45.64C203.909 45.64 202.633 45.425 201.496 44.9955C200.359 44.5407 199.386 43.909 198.577 43.1006C197.769 42.2667 197.137 41.2686 196.683 40.1066C196.253 38.919 196.038 37.5797 196.038 36.0892C196.038 34.6236 196.253 33.3098 196.683 32.1474C197.137 30.9599 197.769 29.9617 198.577 29.1534C199.411 28.3195 200.397 27.6881 201.534 27.2585C202.671 26.8034 203.934 26.5761 205.324 26.5761C206.713 26.5761 207.977 26.8038 209.114 27.2585C210.251 27.6881 211.223 28.3195 212.032 29.1534C212.866 29.9873 213.497 30.9978 213.927 32.1854C214.382 33.3477 214.609 34.6488 214.609 36.0892ZM205.324 30.3661C203.959 30.3661 202.885 30.8715 202.102 31.8821C201.319 32.8675 200.927 34.2696 200.927 36.0892C200.927 37.9337 201.306 39.3486 202.064 40.3339C202.847 41.3193 203.934 41.812 205.324 41.812C206.713 41.812 207.787 41.3193 208.545 40.3339C209.329 39.3231 209.72 37.9085 209.72 36.0892C209.72 34.2699 209.329 32.8675 208.545 31.8821C207.762 30.8712 206.688 30.3661 205.324 30.3661ZM228.568 45.602C227.836 45.602 227.153 45.5261 226.522 45.3743C225.915 45.2484 225.359 45.0841 224.854 44.882V51.8554C224.627 51.9061 224.324 51.9693 223.944 52.0452C223.566 52.1211 223.136 52.1587 222.656 52.1587C221.772 52.1587 221.115 51.9945 220.685 51.666C220.256 51.3376 220.041 50.7565 220.041 49.9226V30.7073C220.041 30.1008 220.155 29.6081 220.382 29.2293C220.635 28.8501 221.026 28.4964 221.557 28.168C222.289 27.7384 223.199 27.372 224.286 27.0688C225.372 26.7403 226.597 26.5761 227.962 26.5761C229.352 26.5761 230.627 26.7658 231.79 27.1447C232.977 27.4983 234.001 28.0669 234.86 28.8501C235.719 29.6081 236.388 30.581 236.868 31.7686C237.348 32.9561 237.588 34.371 237.588 36.0133C237.588 37.6052 237.361 38.9946 236.906 40.1821C236.452 41.3697 235.82 42.3678 235.011 43.1765C234.228 43.9849 233.281 44.5911 232.169 44.9955C231.082 45.3998 229.882 45.602 228.568 45.602ZM227.848 41.774C229.364 41.774 230.552 41.3066 231.411 40.3719C232.27 39.4369 232.699 37.9844 232.699 36.0133C232.699 33.9667 232.257 32.5138 231.373 31.6547C230.489 30.7956 229.352 30.3661 227.962 30.3661C227.28 30.3661 226.673 30.4548 226.143 30.6318C225.637 30.8084 225.195 30.9978 224.816 31.2V40.9401C225.231 41.1976 225.677 41.4014 226.143 41.5467C226.648 41.6985 227.217 41.774 227.848 41.774Z" fill="url(#paint0_linear_4232_80572)"/>
<path d="M244.802 35.4849C245.636 37.6326 246.356 39.338 246.963 40.6015C247.215 41.1573 247.455 41.612 247.683 41.966C247.935 42.3196 248.162 42.6101 248.365 42.8375C248.592 43.0649 248.807 43.2419 249.009 43.3681C249.237 43.4692 249.464 43.5576 249.691 43.6335C249.368 44.1957 249.013 44.7398 248.63 45.2633C248.222 45.8234 247.792 46.367 247.341 46.8928C246.906 47.4028 246.45 47.8958 245.977 48.3709C245.567 48.8075 245.137 49.2248 244.689 49.6216C244.815 50.3292 245.118 50.9102 245.598 51.3653C246.103 51.8452 246.76 52.0853 247.569 52.0853C248.605 52.0853 249.653 51.504 250.715 50.342C251.801 49.2048 253.001 47.4742 254.315 45.1495C254.997 43.9367 255.679 42.5342 256.361 40.9423C257.025 39.3732 257.632 37.7805 258.181 36.1673C258.737 34.5754 259.179 33.0974 259.507 31.7328C259.836 30.3434 260 29.2694 260 28.5114C260 27.8293 259.76 27.3366 259.28 27.0334C258.8 26.7301 258.231 26.5783 257.575 26.5783C257.195 26.5783 256.829 26.629 256.475 26.7301C256.15 26.8301 255.833 26.9569 255.528 27.1093C255.29 28.2651 255.025 29.415 254.732 30.558C254.43 31.7402 254.102 32.9154 253.747 34.0827C253.43 35.2061 253.077 36.3185 252.685 37.418C252.369 38.3743 252.028 39.322 251.662 40.2602H251.511C249.995 36.344 248.643 32.4784 247.455 28.6629C247.202 27.8797 246.861 27.3366 246.432 27.0334C246.028 26.7301 245.497 26.5786 244.84 26.5786C244.309 26.5786 243.817 26.6921 243.362 26.9195C242.907 27.122 242.553 27.3742 242.301 27.6775C243.135 30.735 243.968 33.3375 244.802 35.4849Z" fill="url(#paint1_linear_4232_80572)"/>
<rect width="60.3778" height="60.3778" rx="24.1511" transform="matrix(1 0 0 -1 0 60.9409)" fill="black"/>
<rect width="60.3778" height="60.3778" rx="14" transform="matrix(1 0 0 -1 0 60.9409)" fill="black"/>
<path d="M14.4908 11.9631C11.6137 11.9631 9.28137 14.2954 9.28137 17.1729C9.28137 20.0496 11.6137 22.3819 14.4908 22.3819V11.9631ZM26.0857 44.5637C26.0857 47.4411 28.418 49.7734 31.2955 49.7734C34.1722 49.7734 36.5045 47.4411 36.5045 44.5637H26.0857ZM14.4908 22.3819H27.9343V11.9631H14.4908V22.3819ZM26.0857 20.5337V44.5637H36.5045V20.5337H26.0857ZM27.9343 22.3819C27.4441 22.3819 26.974 22.1872 26.6273 21.8406C26.2806 21.494 26.0858 21.0239 26.0857 20.5337H36.5045C36.5045 15.8 32.6676 11.9635 27.9343 11.9635V22.3819Z" fill="url(#paint2_linear_4232_80572)"/>
<path d="M36.4758 36.248C34.9863 27.1969 29.5333 23.1485 26.0183 22.298V44.9248C26.5893 52.2937 36.4758 50.7811 36.4758 44.9248V36.248Z" fill="url(#paint3_linear_4232_80572)"/>
<circle cx="9.67442" cy="9.67442" r="9.67442" transform="matrix(1 0 0 -1 47.1628 19.4717)" fill="url(#paint4_linear_4232_80572)"/>
<path d="M57.4418 13.4252L56.8282 12.9033C54.6481 11.057 53.2092 9.83471 53.2092 8.34398C53.2092 7.12267 54.2337 6.16936 55.537 6.16936C56.2731 6.16936 56.9805 6.48964 57.4418 6.9922C57.6784 6.73642 57.9707 6.53073 58.2992 6.38884C58.6276 6.24694 58.9847 6.17212 59.3466 6.16936C60.6499 6.16936 61.6743 7.12267 61.6743 8.34445C61.6743 9.83471 60.2349 11.057 58.0554 12.9033L57.4418 13.4252Z" fill="black"/>
<defs>
<linearGradient id="paint0_linear_4232_80572" x1="195.683" y1="52.1587" x2="195.689" y2="20.1374" gradientUnits="userSpaceOnUse">
<stop stop-color="#EB8105"/>
<stop offset="1" stop-color="#FAAC06"/>
</linearGradient>
<linearGradient id="paint1_linear_4232_80572" x1="251.15" y1="52.0853" x2="251.167" y2="26.5819" gradientUnits="userSpaceOnUse">
<stop stop-color="#EB8105"/>
<stop offset="1" stop-color="#FAAC06"/>
</linearGradient>
<linearGradient id="paint2_linear_4232_80572" x1="22.893" y1="49.7734" x2="22.9171" y2="11.9684" gradientUnits="userSpaceOnUse">
<stop stop-color="#EB8105"/>
<stop offset="1" stop-color="#FAAC06"/>
</linearGradient>
<linearGradient id="paint3_linear_4232_80572" x1="31.247" y1="49.9004" x2="31.2806" y2="22.3019" gradientUnits="userSpaceOnUse">
<stop stop-color="#EB8105"/>
<stop offset="1" stop-color="#FAAC06"/>
</linearGradient>
<linearGradient id="paint4_linear_4232_80572" x1="9.67442" y1="5.30974e-10" x2="9.68333" y2="19.3461" gradientUnits="userSpaceOnUse">
<stop stop-color="#EB8105"/>
<stop offset="1" stop-color="#FAAC06"/>
</linearGradient>
</defs>
</svg>
