<svg width="40" height="40" viewBox="0 0 40 40" fill="none" xmlns="http://www.w3.org/2000/svg">
<g clipPath="url(#clip0_567_8948)">
<path d="M19.9997 3.33334C13.5497 3.33334 8.33301 8.55001 8.33301 15C8.33301 23.75 19.9997 36.6667 19.9997 36.6667C19.9997 36.6667 31.6663 23.75 31.6663 15C31.6663 8.55001 26.4497 3.33334 19.9997 3.33334ZM11.6663 15C11.6663 10.4 15.3997 6.66668 19.9997 6.66668C24.5997 6.66668 28.333 10.4 28.333 15C28.333 19.8 23.533 26.9833 19.9997 31.4667C16.533 27.0167 11.6663 19.75 11.6663 15Z" fill="#323232"/>
<path d="M19.9997 19.1667C22.3009 19.1667 24.1663 17.3012 24.1663 15C24.1663 12.6988 22.3009 10.8333 19.9997 10.8333C17.6985 10.8333 15.833 12.6988 15.833 15C15.833 17.3012 17.6985 19.1667 19.9997 19.1667Z" fill="#323232"/>
</g>
<defs>
<clipPath id="clip0_567_8948">
<rect width="40" height="40" fill="white"/>
</clipPath>
</defs>
</svg>
