<svg width="41" height="41" viewBox="0 0 41 41" fill="none" xmlns="http://www.w3.org/2000/svg">
<path d="M20.6663 31.4167L20.4997 31.5833L20.3163 31.4167C12.3997 24.2333 7.16634 19.4833 7.16634 14.6667C7.16634 11.3333 9.66634 8.83333 12.9997 8.83333C15.5663 8.83333 18.0663 10.5 18.9497 12.7667H22.0497C22.933 10.5 25.433 8.83333 27.9997 8.83333C31.333 8.83333 33.833 11.3333 33.833 14.6667C33.833 19.4833 28.5997 24.2333 20.6663 31.4167ZM27.9997 5.5C25.0997 5.5 22.3163 6.85 20.4997 8.96667C18.683 6.85 15.8997 5.5 12.9997 5.5C7.86634 5.5 3.83301 9.51667 3.83301 14.6667C3.83301 20.95 9.49967 26.1 18.083 33.8833L20.4997 36.0833L22.9163 33.8833C31.4997 26.1 37.1663 20.95 37.1663 14.6667C37.1663 9.51667 33.133 5.5 27.9997 5.5Z" fill="#323232"/>
</svg>
