<svg width="41" height="40" viewBox="0 0 41 40" fill="none" xmlns="http://www.w3.org/2000/svg">
<g clipPath="url(#clip0_567_8950)">
<path d="M35.849 19.3L20.849 4.30001C20.249 3.70001 19.4157 3.33334 18.499 3.33334H6.83236C4.99902 3.33334 3.49902 4.83334 3.49902 6.66668V18.3333C3.49902 19.25 3.86569 20.0833 4.48236 20.7L19.4824 35.7C20.0824 36.3 20.9157 36.6667 21.8324 36.6667C22.749 36.6667 23.5824 36.3 24.1824 35.6833L35.849 24.0167C36.4657 23.4167 36.8324 22.5833 36.8324 21.6667C36.8324 20.75 36.449 19.9 35.849 19.3ZM9.33236 11.6667C7.94902 11.6667 6.83236 10.55 6.83236 9.16668C6.83236 7.78334 7.94902 6.66668 9.33236 6.66668C10.7157 6.66668 11.8324 7.78334 11.8324 9.16668C11.8324 10.55 10.7157 11.6667 9.33236 11.6667Z" fill="#323232"/>
</g>
<defs>
<clipPath id="clip0_567_8950">
<rect width="40" height="40" fill="white" transform="translate(0.166016)"/>
</clipPath>
</defs>
</svg>
