<svg width="40" height="41" viewBox="0 0 40 41" fill="none" xmlns="http://www.w3.org/2000/svg">
<g clipPath="url(#clip0_567_8944)">
<path d="M12.6338 7.29999L10.2505 4.91666C6.25046 7.96666 3.61712 12.6667 3.38379 18H6.71712C6.96712 13.5833 9.23379 9.71666 12.6338 7.29999ZM33.2838 18H36.6171C36.3671 12.6667 33.7338 7.96666 29.7505 4.91666L27.3838 7.29999C30.7505 9.71666 33.0338 13.5833 33.2838 18ZM30.0005 18.8333C30.0005 13.7167 27.2671 9.43332 22.5005 8.29999V7.16666C22.5005 5.78332 21.3838 4.66666 20.0005 4.66666C18.6171 4.66666 17.5005 5.78332 17.5005 7.16666V8.29999C12.7171 9.43332 10.0005 13.7 10.0005 18.8333V27.1667L6.66712 30.5V32.1667H33.3338V30.5L30.0005 27.1667V18.8333ZM20.0005 37.1667C20.2338 37.1667 20.4505 37.15 20.6671 37.1C21.7505 36.8667 22.6338 36.1333 23.0671 35.1333C23.2338 34.7333 23.3171 34.3 23.3171 33.8333H16.6505C16.6671 35.6667 18.1505 37.1667 20.0005 37.1667Z" fill="#323232"/>
</g>
<defs>
<clipPath id="clip0_567_8944">
<rect width="40" height="40" fill="white" transform="translate(0 0.5)"/>
</clipPath>
</defs>
</svg>
