<svg width="41" height="41" viewBox="0 0 41 41" fill="none" xmlns="http://www.w3.org/2000/svg">
<path d="M38.011 7.23703C38.0087 7.2218 37.9985 7.20954 37.9956 7.19454C37.9783 7.12383 37.9553 7.06211 37.9263 7.00391L37.9286 7.0091C37.9072 6.95098 37.8833 6.90137 37.8552 6.85453L37.8576 6.85868C37.8166 6.80379 37.7719 6.75563 37.7225 6.71266L37.7214 6.71172C37.6933 6.67668 37.6643 6.64532 37.6332 6.61621L37.6327 6.61575L37.6034 6.60246C37.5481 6.56926 37.4843 6.53996 37.4172 6.51809L37.4106 6.51625C37.3687 6.49618 37.3188 6.47743 37.2671 6.46289L37.2604 6.46125L37.225 6.44828L20.9762 3.94828C20.9332 3.94125 20.8838 3.93735 20.8334 3.93735C20.783 3.93735 20.7335 3.94125 20.6852 3.94899L20.6905 3.94828L4.40805 6.46016C4.34047 6.47743 4.28168 6.49961 4.22617 6.52735L4.23133 6.525C4.16676 6.5475 4.11133 6.57352 4.05918 6.60446L4.06348 6.60211L4.03402 6.61551C4.00332 6.64442 3.97504 6.675 3.94887 6.70746L3.94754 6.70922C3.89598 6.75391 3.85043 6.80309 3.81059 6.85676L3.80883 6.85922C3.78332 6.9018 3.75949 6.95141 3.74023 7.00317L3.73812 7.0095C3.71176 7.06168 3.68902 7.12254 3.67305 7.18606L3.67172 7.19231C3.66848 7.20801 3.65797 7.22098 3.65555 7.23684L2.40555 15.6743C2.39914 15.7154 2.39551 15.7629 2.39551 15.8112C2.39551 16.2626 2.71437 16.6396 3.13914 16.7291L3.14527 16.7302L4.95113 17.0999C4.92027 17.1811 4.90027 17.275 4.89566 17.3729V33.0005C4.89566 33.4503 5.21258 33.8261 5.63531 33.9168L5.64145 33.9178L20.6414 37.0428C20.6991 37.0552 20.7653 37.0623 20.8331 37.0623C20.9009 37.0623 20.9671 37.0552 21.0309 37.0417L21.0247 37.0428L36.0235 33.9178C36.4529 33.8261 36.7703 33.45 36.7706 32.9998V17.3748C36.7659 17.2749 36.746 17.181 36.713 17.0936L36.715 17.0998L38.5211 16.7304C38.952 16.6407 39.2712 16.2641 39.2712 15.8129C39.2712 15.7641 39.2674 15.7161 39.2602 15.6692L39.2609 15.6745L38.011 7.23703ZM20.8332 5.82344L31.2724 7.4293L20.8332 9.23664L10.3949 7.4293L20.8332 5.82344ZM5.36937 8.46266L19.488 10.9065L16.5327 17.5557L4.39035 15.0715L5.36937 8.46266ZM6.77074 17.472L16.8952 19.543C16.9529 19.5557 17.0191 19.5629 17.087 19.5629C17.4661 19.5629 17.7922 19.3366 17.9378 19.0117L17.9402 19.0059L19.8957 14.6054V34.9727L6.77074 32.2383V17.472ZM34.8957 32.2383L21.7707 34.9727V14.6054L23.7263 19.0059C23.8767 19.3361 24.2036 19.5616 24.5831 19.5625H24.5836C24.65 19.5625 24.7149 19.5554 24.7772 19.5419L24.7712 19.543L34.8957 17.472V32.2383ZM25.135 17.5558L22.1785 10.9066L36.2971 8.46266L37.2761 15.0715L25.135 17.5558Z" fill="black"/>
</svg>
