<svg width="40" height="40" viewBox="0 0 40 40" fill="none" xmlns="http://www.w3.org/2000/svg">
<path d="M24.9997 18.3333H36.6663V21.6667H24.9997V18.3333ZM26.6663 25H36.6663V28.3333H26.6663V25ZM23.333 11.6667H36.6663V15H23.333V11.6667ZM6.66634 31.6667H23.333V30C23.333 25.405 19.5947 21.6667 14.9997 21.6667H11.6663C7.07134 21.6667 3.33301 25.405 3.33301 30V31.6667H6.66634ZM13.333 20C16.658 20 19.1663 17.4917 19.1663 14.1667C19.1663 10.8417 16.658 8.33334 13.333 8.33334C10.008 8.33334 7.49967 10.8417 7.49967 14.1667C7.49967 17.4917 10.008 20 13.333 20Z" fill="#323232"/>
</svg>
