<svg width="34" height="32" viewBox="0 0 34 32" fill="none" xmlns="http://www.w3.org/2000/svg">
<path d="M28.1997 20.5031C28.783 19.0865 29.0997 17.5698 29.0997 15.9031C29.0997 14.7031 28.9163 13.5531 28.5997 12.4865C27.5163 12.7365 26.383 12.8698 25.1997 12.8698C22.7763 12.8724 20.3878 12.2924 18.2356 11.1785C16.0833 10.0647 14.2304 8.44974 12.833 6.46982C11.3382 10.0868 8.51822 12.9962 4.94967 14.6032C4.88301 15.0198 4.88301 15.4698 4.88301 15.9031C4.88301 17.4943 5.19641 19.0699 5.80533 20.54C6.41425 22.0101 7.30676 23.3458 8.4319 24.4709C10.7042 26.7432 13.7861 28.0198 16.9997 28.0198C18.7497 28.0198 20.433 27.6365 21.9497 26.9531C22.8997 28.7698 23.333 29.6698 23.2997 29.6698C20.5663 30.5865 18.4497 31.0365 16.9997 31.0365C12.9663 31.0365 9.11634 29.4531 6.28301 26.6031C4.55967 24.8851 3.27862 22.7748 2.54967 20.4531H0.333008V12.8698H2.14967C2.70008 10.1907 3.9655 7.7105 5.81166 5.69247C7.65782 3.67444 10.0159 2.19383 12.6356 1.40775C15.2553 0.621666 18.0389 0.559436 20.6911 1.22766C23.3433 1.89589 25.7652 3.26964 27.6997 5.20315C29.8 7.29524 31.2327 9.96332 31.8163 12.8698H33.6663V20.4531H33.5663L27.633 25.9031L18.7997 24.9031V22.1198H26.8497L28.1997 20.5031ZM12.4497 15.5198C12.9497 15.5198 13.433 15.7198 13.783 16.0865C14.1348 16.4411 14.3321 16.9203 14.3321 17.4198C14.3321 17.9193 14.1348 18.3985 13.783 18.7531C13.433 19.1031 12.9497 19.3031 12.4497 19.3031C11.3997 19.3031 10.5497 18.4698 10.5497 17.4198C10.5497 16.3698 11.3997 15.5198 12.4497 15.5198ZM21.533 15.5198C22.583 15.5198 23.4163 16.3698 23.4163 17.4198C23.4163 18.4698 22.583 19.3031 21.533 19.3031C20.483 19.3031 19.633 18.4698 19.633 17.4198C19.633 16.9159 19.8332 16.4326 20.1895 16.0763C20.5458 15.72 21.0291 15.5198 21.533 15.5198Z" fill="#323232"/>
</svg>
