<svg width="20" height="21" viewBox="0 0 20 21" fill="none" xmlns="http://www.w3.org/2000/svg">
<path d="M7.5 2.75V5.42312C7.50112 5.71674 7.39833 6.00128 7.20982 6.22639C7.02132 6.4515 6.75925 6.60267 6.47 6.65312C4.84625 6.935 1.875 7.6375 1.875 9C1.875 12.125 5.625 16.5 10 16.5C14.375 16.5 18.125 12.125 18.125 9C18.125 7.6375 15.1538 6.935 13.53 6.6525C13.2409 6.60206 12.9789 6.45099 12.7904 6.22601C12.6019 6.00103 12.499 5.71663 12.5 5.42312V2.75H7.5Z" stroke="black" stroke-width="1.25" stroke-miterlimit="10" stroke-linecap="round" stroke-linejoin="round"/>
<path d="M5.83313 15.2498C5.83313 16.4998 5.55562 17.7498 5 18.9998H15C14.4444 17.7498 14.1669 16.4998 14.1669 15.2498M7.5 9.06232V10.8748M12.5 9.06232V10.8748M10 10.8748L8.75 12.7498L10 13.9998L11.25 12.7498L10 10.8748ZM10 10.8748V9.62482M10 9.62482C12.1394 9.62482 13.9281 8.43982 14.3719 6.85545M10 9.62482C7.85875 9.62482 6.06875 8.43795 5.62688 6.85107" stroke="black" stroke-width="1.25" stroke-miterlimit="10" stroke-linecap="round" stroke-linejoin="round"/>
</svg>
