<svg width="20" height="21" viewBox="0 0 20 21" fill="none" xmlns="http://www.w3.org/2000/svg">
<path d="M13.5355 10.827C14.4404 9.92221 15 8.67221 15 7.2915C15 4.53008 12.7614 2.2915 10 2.2915C7.23858 2.2915 5 4.53008 5 7.2915C5 8.67221 5.55962 9.92221 6.46446 10.827" stroke="black" stroke-width="1.66667" stroke-linecap="round"/>
<path d="M2.5 18.9582L2.91667 16.8748L7.5 13.5415L10 16.0415L12.5 13.5415L17.0833 16.8748L17.5 18.9582" stroke="black" stroke-width="1.66667" stroke-linecap="round" stroke-linejoin="round"/>
<path d="M5.41382 9.37759C5.41911 7.66484 5.69778 6.41384 6.2499 5.62459C7.07811 4.44076 7.66115 4.52778 8.08549 4.71217C8.50982 4.89655 8.75932 6.10138 9.46807 6.44868C10.1768 6.79597 11.9906 6.83884 12.6119 7.25659C13.2331 7.67438 14.6539 8.45147 14.2997 9.77813" stroke="black" stroke-width="1.66667"/>
</svg>
