<svg width="20" height="21" viewBox="0 0 20 21" fill="none" xmlns="http://www.w3.org/2000/svg">
<path fill-rule="evenodd" clip-rule="evenodd" d="M10 3.45817C6.78833 3.45817 4.16667 6.09734 4.16667 9.37484C4.16667 11.229 5.57833 13.0757 7.225 14.5598C8.08936 15.3341 9.01767 16.0338 10 16.6515C10.9823 16.034 11.9106 15.3346 12.775 14.5607C14.4217 13.0748 15.8333 11.2282 15.8333 9.37484C15.8333 6.09734 13.2117 3.45817 10 3.45817ZM10 17.6248L9.58917 18.3498L9.58667 18.3482L9.58167 18.3457L9.565 18.3357C9.20044 18.1196 8.8425 17.8925 8.49167 17.6548C7.65606 17.0907 6.85977 16.4704 6.10833 15.7982C4.42167 14.2773 2.5 11.9982 2.5 9.37484C2.5 5.1965 5.84833 1.7915 10 1.7915C14.1517 1.7915 17.5 5.1965 17.5 9.37484C17.5 11.999 15.5783 14.2773 13.8917 15.7982C12.8239 16.7534 11.6663 17.6032 10.435 18.3357L10.4183 18.3457L10.4133 18.349H10.4117L10.4108 18.3498L10 17.6248ZM10 17.6248L10.41 18.3498C10.2849 18.4205 10.1437 18.4577 10 18.4577C9.85632 18.4577 9.71509 18.4205 9.59 18.3498L10 17.6248Z" fill="black"/>
<path fill-rule="evenodd" clip-rule="evenodd" d="M10 6.37516C9.66851 6.37516 9.35056 6.50686 9.11614 6.74128C8.88172 6.9757 8.75003 7.29364 8.75003 7.62516C8.75003 7.95668 8.88172 8.27463 9.11614 8.50905C9.35056 8.74347 9.66851 8.87516 10 8.87516C10.3315 8.87516 10.6495 8.74347 10.8839 8.50905C11.1183 8.27463 11.25 7.95668 11.25 7.62516C11.25 7.29364 11.1183 6.9757 10.8839 6.74128C10.6495 6.50686 10.3315 6.37516 10 6.37516ZM7.08336 7.62516C7.08336 7.24214 7.1588 6.86287 7.30538 6.509C7.45195 6.15514 7.66679 5.83361 7.93763 5.56277C8.20847 5.29193 8.53 5.07709 8.88387 4.93051C9.23773 4.78394 9.617 4.7085 10 4.7085C10.383 4.7085 10.7623 4.78394 11.1162 4.93051C11.4701 5.07709 11.7916 5.29193 12.0624 5.56277C12.3333 5.83361 12.5481 6.15514 12.6947 6.509C12.8413 6.86287 12.9167 7.24214 12.9167 7.62516C12.9167 8.39871 12.6094 9.14058 12.0624 9.68756C11.5154 10.2345 10.7736 10.5418 10 10.5418C9.22648 10.5418 8.48461 10.2345 7.93763 9.68756C7.39065 9.14058 7.08336 8.39871 7.08336 7.62516ZM10 12.6252C9.28207 12.6248 8.57621 12.8101 7.95098 13.163C7.32575 13.5159 6.80238 14.0245 6.43169 14.6393L5.00586 13.7768C5.52495 12.9166 6.25752 12.2051 7.13253 11.7113C8.00754 11.2175 8.9953 10.9582 10 10.9585C11.0048 10.9582 11.9925 11.2175 12.8675 11.7113C13.7425 12.2051 14.4751 12.9166 14.9942 13.7768L13.5692 14.6393C13.1984 14.0243 12.6749 13.5157 12.0495 13.1628C11.4242 12.8098 10.7181 12.6247 10 12.6252Z" fill="black"/>
</svg>
