<svg width="20" height="21" viewBox="0 0 20 21" fill="none" xmlns="http://www.w3.org/2000/svg">
<path d="M13.5355 10.577C14.4404 9.67221 15 8.42221 15 7.0415C15 4.28008 12.7614 2.0415 10 2.0415C7.23858 2.0415 5 4.28008 5 7.0415C5 8.42221 5.55962 9.67221 6.46446 10.577" stroke="black" stroke-width="1.66667" stroke-linecap="round"/>
<path d="M2.5 18.7082L2.91667 16.6248L7.5 13.2915L10 15.7915L12.5 13.2915L17.0833 16.6248L17.5 18.7082" stroke="black" stroke-width="1.66667" stroke-linecap="round" stroke-linejoin="round"/>
<path d="M5.41382 9.12759C5.41911 7.41484 5.69778 6.16384 6.2499 5.37459C7.07811 4.19076 7.66115 4.27778 8.08549 4.46217C8.50982 4.64655 8.75932 5.85138 9.46807 6.19868C10.1768 6.54597 11.9906 6.58884 12.6119 7.00659C13.2331 7.42438 14.6539 8.20147 14.2997 9.52813" stroke="black" stroke-width="1.66667"/>
</svg>
