<svg width="22" height="22" viewBox="0 0 22 22" fill="none" xmlns="http://www.w3.org/2000/svg">
<path d="M4.58333 18.875C4.07917 18.875 3.64742 18.7035 3.28808 18.3605C2.92875 18.0175 2.74939 17.6057 2.75 17.125V4.875C2.75 4.39375 2.92967 3.98163 3.289 3.63863C3.64833 3.29563 4.07978 3.12442 4.58333 3.125H11.9167C12.1764 3.125 12.3943 3.209 12.5703 3.377C12.7463 3.545 12.8339 3.75267 12.8333 4C12.8333 4.24792 12.7453 4.45588 12.5693 4.62388C12.3933 4.79188 12.1758 4.87559 11.9167 4.875H4.58333V17.125H17.4167V10.125C17.4167 9.87709 17.5047 9.66913 17.6807 9.50113C17.8567 9.33313 18.0742 9.24942 18.3333 9.25C18.5931 9.25 18.8109 9.334 18.9869 9.502C19.1629 9.67 19.2506 9.87767 19.25 10.125V17.125C19.25 17.6063 19.0703 18.0184 18.711 18.3614C18.3517 18.7044 17.9202 18.8756 17.4167 18.875H4.58333ZM16.5 8.375C16.2403 8.375 16.0224 8.291 15.8464 8.123C15.6704 7.955 15.5827 7.74734 15.5833 7.5V6.625H14.6667C14.4069 6.625 14.1891 6.541 14.0131 6.373C13.8371 6.205 13.7494 5.99734 13.75 5.75C13.75 5.50209 13.838 5.29413 14.014 5.12613C14.19 4.95813 14.4076 4.87442 14.6667 4.875H15.5833V4C15.5833 3.75209 15.6713 3.54413 15.8473 3.37613C16.0233 3.20813 16.2409 3.12442 16.5 3.125C16.7597 3.125 16.9776 3.209 17.1536 3.377C17.3296 3.545 17.4173 3.75267 17.4167 4V4.875H18.3333C18.5931 4.875 18.8109 4.959 18.9869 5.127C19.1629 5.295 19.2506 5.50267 19.25 5.75C19.25 5.99792 19.162 6.20588 18.986 6.37388C18.81 6.54188 18.5924 6.62559 18.3333 6.625H17.4167V7.5C17.4167 7.74792 17.3287 7.95588 17.1527 8.12388C16.9767 8.29188 16.7591 8.37559 16.5 8.375ZM6.41667 15.375H15.5833C15.7667 15.375 15.9042 15.2948 15.9958 15.1344C16.0875 14.974 16.0722 14.8208 15.95 14.675L13.4292 11.4594C13.3375 11.3427 13.2153 11.2844 13.0625 11.2844C12.9097 11.2844 12.7875 11.3427 12.6958 11.4594L10.3125 14.5L8.61667 12.3344C8.525 12.2177 8.40278 12.1594 8.25 12.1594C8.09722 12.1594 7.975 12.2177 7.88334 12.3344L6.05 14.675C5.92778 14.8208 5.9125 14.974 6.00417 15.1344C6.09584 15.2948 6.23334 15.375 6.41667 15.375ZM4.58333 10.125V17.125V4.875V10.125Z" fill="#888888"/>
</svg>
