<svg width="18" height="18" viewBox="0 0 18 18" fill="none" xmlns="http://www.w3.org/2000/svg">
<g clip-path="url(#clip0_5179_21884)">
<path d="M17.4375 9C17.4375 13.6688 13.6688 17.4375 9 17.4375C4.33125 17.4375 0.5625 13.6688 0.5625 9C0.5625 4.33125 4.33125 0.5625 9 0.5625C13.6688 0.5625 17.4375 4.33125 17.4375 9Z" fill="#FFDD67"/>
<path d="M13.7812 10.6875C13.7812 10.4625 13.6406 10.1812 13.275 10.0968C12.2906 9.89995 10.8562 9.7312 9 9.7312C7.14375 9.7312 5.70937 9.92808 4.725 10.0968C4.35937 10.1812 4.21875 10.4625 4.21875 10.6875C4.21875 12.7406 5.79375 14.7937 9 14.7937C12.2062 14.7937 13.7812 12.7406 13.7812 10.6875Z" fill="#664E27"/>
<path d="M8.01564 7.56565C7.48126 6.13127 6.69376 5.40002 5.90626 5.40002C5.11876 5.40002 4.33126 6.13127 3.79689 7.56565C3.74064 7.70627 4.02189 7.9594 4.16251 7.81877C4.66876 7.2844 5.28751 7.0594 5.90626 7.0594C6.52501 7.0594 7.14376 7.2844 7.65001 7.81877C7.81876 7.9594 8.07189 7.70627 8.01564 7.56565Z" fill="#664E27"/>
<path d="M14.1748 7.56565C13.6404 6.13127 12.8529 5.40002 12.0654 5.40002C11.2779 5.40002 10.4904 6.13127 9.95607 7.56565C9.89982 7.70627 10.1811 7.9594 10.3217 7.81877C10.8279 7.2844 11.4467 7.0594 12.0654 7.0594C12.7123 7.0594 13.3029 7.2844 13.8092 7.81877C13.9498 7.9594 14.2311 7.70627 14.1748 7.56565Z" fill="#664E27"/>
<path d="M12.5717 10.7719C11.9529 10.6594 10.6592 10.4906 8.99979 10.4906C7.34041 10.4906 6.04666 10.6594 5.42791 10.7719C5.06229 10.8281 5.03416 10.9687 5.06229 11.1937C5.09041 11.3062 5.09041 11.475 5.14666 11.6437C5.17479 11.8125 5.23104 11.8969 5.51229 11.8687C6.04666 11.8125 11.981 11.8125 12.5154 11.8687C12.7967 11.8969 12.8248 11.8125 12.881 11.6437C12.9092 11.475 12.9373 11.3344 12.9654 11.1937C12.9654 10.9687 12.9373 10.8281 12.5717 10.7719Z" fill="white"/>
<path d="M17.4375 9C17.4375 13.6688 13.6688 17.4375 9 17.4375C4.33125 17.4375 0.5625 13.6688 0.5625 9C0.5625 4.33125 4.33125 0.5625 9 0.5625C13.6688 0.5625 17.4375 4.33125 17.4375 9Z" fill="#EB8105"/>
<path d="M13.7812 10.6875C13.7812 10.4625 13.6406 10.1812 13.275 10.0968C12.2906 9.89995 10.8562 9.7312 9 9.7312C7.14375 9.7312 5.70937 9.92808 4.725 10.0968C4.35937 10.1812 4.21875 10.4625 4.21875 10.6875C4.21875 12.7406 5.79375 14.7937 9 14.7937C12.2062 14.7937 13.7812 12.7406 13.7812 10.6875Z" fill="white"/>
<path d="M8.01564 7.56565C7.48126 6.13127 6.69376 5.40002 5.90626 5.40002C5.11876 5.40002 4.33126 6.13127 3.79689 7.56565C3.74064 7.70627 4.02189 7.9594 4.16251 7.81877C4.66876 7.2844 5.28751 7.0594 5.90626 7.0594C6.52501 7.0594 7.14376 7.2844 7.65001 7.81877C7.81876 7.9594 8.07189 7.70627 8.01564 7.56565Z" fill="white"/>
<path d="M14.1748 7.56565C13.6404 6.13127 12.8529 5.40002 12.0654 5.40002C11.2779 5.40002 10.4904 6.13127 9.95607 7.56565C9.89982 7.70627 10.1811 7.9594 10.3217 7.81877C10.8279 7.2844 11.4467 7.0594 12.0654 7.0594C12.7123 7.0594 13.3029 7.2844 13.8092 7.81877C13.9498 7.9594 14.2311 7.70627 14.1748 7.56565Z" fill="white"/>
<path d="M12.5717 10.7719C11.9529 10.6594 10.6592 10.4906 8.99979 10.4906C7.34041 10.4906 6.04666 10.6594 5.42791 10.7719C5.06229 10.8281 5.03416 10.9687 5.06229 11.1937C5.09041 11.3062 5.09041 11.475 5.14666 11.6437C5.17479 11.8125 5.23104 11.8687 5.51229 11.8687H12.5154C12.7967 11.8687 12.8248 11.8125 12.881 11.6437C12.9092 11.475 12.9373 11.3344 12.9654 11.1937C12.9654 10.9687 12.9373 10.8281 12.5717 10.7719Z" fill="white"/>
</g>
<defs>
<clipPath id="clip0_5179_21884">
<rect width="18" height="18" fill="white"/>
</clipPath>
</defs>
</svg>
