<svg width="18" height="18" viewBox="0 0 18 18" fill="none" xmlns="http://www.w3.org/2000/svg">
<path d="M8.94385 16.7063C5.02041 16.7063 0.787598 14.2453 0.787598 8.84531C0.787598 3.44531 5.02041 0.984375 8.94385 0.984375C11.1235 0.984375 13.1345 1.70156 14.6251 3.00937C16.2423 4.44375 17.1001 6.46875 17.1001 8.84531C17.1001 11.2219 16.2423 13.2328 14.6251 14.6672C13.1345 15.975 11.1095 16.7063 8.94385 16.7063Z" fill="#EB8105"/>
<path d="M9.05642 11.714C8.55299 11.714 8.05377 11.6296 7.57986 11.4609C6.99627 11.2598 6.36205 11.5706 6.16096 12.1528C6.04705 12.4818 6.09346 12.8446 6.28611 13.1343C6.8908 14.0624 7.84705 14.5687 9.05642 14.5687C10.2658 14.5687 11.222 14.0624 11.8267 13.1343C12.1685 12.621 12.0278 11.9278 11.5145 11.586C11.2249 11.3934 10.862 11.347 10.533 11.4609C10.0591 11.6296 9.55986 11.714 9.05642 11.714Z" fill="white"/>
<path d="M15.1297 4.83325C13.9752 4.5084 13.1272 5.452 13.1272 5.452C13.1272 5.452 13.0288 4.38184 12.0416 4.04575C10.8575 3.63934 9.60736 4.28622 9.53283 5.96387C9.44845 7.87497 11.9769 10.3837 11.9769 10.3837C11.9769 10.3837 15.1156 9.53997 16.1436 7.75122C16.9803 6.29575 16.003 5.07794 15.1297 4.83325Z" fill="white"/>
<path d="M5.7264 4.01764C4.58593 4.38748 4.40312 5.64326 4.40312 5.64326C4.40312 5.64326 3.72812 4.79951 2.71562 5.07233C1.50765 5.39014 0.825621 6.62201 1.68765 8.05779C2.68609 9.70311 6.17921 10.3851 6.17921 10.3851C6.17921 10.3851 8.32375 7.94389 8.18875 5.88514C8.07765 4.20889 6.58843 3.73779 5.7264 4.01764Z" fill="white"/>
</svg>
