<svg width="20" height="22" viewBox="0 0 20 22" fill="none" xmlns="http://www.w3.org/2000/svg">
<path d="M10.4996 13.625L11.8383 10.6063L14.8178 9.25L11.8383 7.89375L10.4996 4.875L9.16101 7.89375L6.18146 9.25L9.16101 10.6063L10.4996 13.625ZM1.86328 19.75V4C1.86328 3.51875 2.03255 3.10662 2.3711 2.76362C2.70907 2.42121 3.11555 2.25 3.59055 2.25H17.4087C17.8837 2.25 18.2905 2.42121 18.6291 2.76362C18.967 3.10662 19.136 3.51875 19.136 4V14.5C19.136 14.9813 18.967 15.3934 18.6291 15.7364C18.2905 16.0788 17.8837 16.25 17.4087 16.25H5.31783L1.86328 19.75ZM3.59055 15.5281L4.60533 14.5H17.4087V4H3.59055V15.5281Z" fill="#888888"/>
</svg>
